Music_BossBattle:
	channel_count 3
	channel 1, Music_BossBattle_Ch1
	channel 2, Music_BossBattle_Ch2
	channel 3, Music_BossBattle_Ch3

Music_BossBattle_Ch1:
	volume 7, 7
	duty_cycle 3
	pitch_offset 2
	vibrato 18, 1, 5
	note_type 5, 11, 2
	octave 3
	tempo 95
	note B_, 1
	note_type 1, 11, 2
	rest 7
	note_type 5, 11, 2
	note A#, 1
	note_type 1, 11, 2
	rest 7
	note_type 5, 11, 2
	note A_, 1
	note_type 1, 11, 2
	rest 7
	note_type 5, 11, 2
	note G#, 1
	note_type 1, 11, 2
	rest 7
	note_type 5, 11, 2
	note A#, 1
	note_type 1, 11, 2
	rest 7
	note_type 5, 11, 2
	note A_, 1
	note_type 1, 11, 2
	rest 7
	note_type 5, 11, 2
	note G#, 1
	note_type 1, 11, 2
	rest 7
	note_type 5, 11, 2
	note G_, 1
	note_type 1, 11, 2
	rest 7
	note_type 5, 11, 2
	note A_, 1
	note_type 1, 11, 2
	rest 7
	note_type 5, 11, 2
	note G#, 1
	note_type 1, 11, 2
	rest 7
	note_type 5, 11, 2
	note G_, 1
	note_type 1, 11, 2
	rest 7
	note_type 5, 11, 2
	note F#, 1
	note_type 1, 11, 2
	rest 7
	note_type 5, 11, 2
	note G#, 1
	note_type 1, 11, 2
	rest 7
	note_type 5, 11, 2
	note G_, 1
	note_type 1, 11, 2
	rest 7
	note_type 5, 11, 2
	note F#, 1
	note_type 1, 11, 2
	rest 7
	note_type 5, 11, 2
	note F_, 1
	note_type 1, 11, 2
	rest 7
	note_type 5, 11, 2
	note G_, 1
	note_type 1, 11, 2
	rest 7
	note_type 5, 11, 2
	note F#, 1
	note_type 1, 11, 2
	rest 7
	note_type 5, 11, 2
	note F_, 1
	note_type 1, 11, 2
	rest 7
	note_type 5, 11, 2
	note E_, 1
	note_type 1, 11, 2
	rest 7
	note_type 5, 11, 2
	note F#, 1
	note_type 1, 11, 2
	rest 7
	note_type 5, 11, 2
	note F_, 1
	note_type 1, 11, 2
	rest 7
	note_type 5, 11, 2
	note E_, 1
	note_type 1, 11, 2
	rest 7
	note_type 5, 11, 2
	note D#, 1
	note_type 1, 11, 2
	rest 7
	note_type 5, 11, 2
	note F_, 1
	note_type 1, 11, 2
	rest 7
	note_type 5, 11, 2
	note E_, 1
	note_type 1, 11, 2
	rest 7
	note_type 5, 11, 2
	note D#, 1
	note_type 1, 11, 2
	rest 7
	note_type 5, 11, 2
	note D_, 1
	note_type 1, 11, 2
	rest 7
	note_type 5, 11, 2
	note E_, 1
	note_type 1, 11, 2
	rest 7
	note_type 5, 11, 2
	note D#, 1
	note_type 1, 11, 2
	rest 7
	note_type 5, 11, 2
	note D_, 1
	note_type 1, 11, 2
	rest 7
	note_type 5, 11, 2
	note C#, 1
	note_type 1, 11, 2
	rest 7
	octave 2
	note_type 5, 11, 4
	note F#, 2
	note_type 1, 11, 4
	rest 14
	note_type 12, 11, 4
	rest 2
	note_type 5, 11, 4
	octave 1
	note B_, 2
	octave 2
	note_type 1, 11, 4
	rest 14
	note_type 5, 11, 4
	note D_, 2
	note_type 1, 11, 4
	rest 14
	note_type 12, 11, 4
	rest 2
	octave 1
	note_type 5, 11, 4
	note F#, 2
	note_type 1, 11, 4
	rest 14
	note_type 5, 11, 4
	note B_, 2
	octave 2
	note_type 1, 11, 4
	rest 14
	note_type 12, 11, 4
	rest 2
	note_type 5, 11, 4
	note G_, 6
	rest 1
	note_type 1, 11, 4
	rest 1
	note_type 6, 11, 4
	rest 1
	note_type 1, 11, 4
	rest 16
	rest 14
	note_type 5, 11, 4
	note G_, 2
	note_type 1, 11, 4
	rest 14
	note_type 5, 11, 4
	note G_, 4
	note_type 1, 11, 4
	rest 16
	rest 12
	note_type 5, 11, 4
	note G_, 4
	note_type 1, 11, 4
	rest 16
	rest 12
	note_type 5, 11, 4
	note F#, 2
	note_type 1, 11, 4
	rest 14
	note_type 12, 11, 4
	rest 2
	note_type 5, 11, 4
	octave 1
	note B_, 2
	octave 2
	note_type 1, 11, 4
	rest 14
	note_type 5, 11, 4
	note D_, 2
	note_type 1, 11, 4
	rest 14
	note_type 12, 11, 4
	rest 2
	octave 1
	note_type 5, 11, 4
	note F#, 2
	note_type 1, 11, 4
	rest 14
	note_type 5, 11, 4
	note B_, 2
	octave 2
	note_type 1, 11, 4
	rest 14
	note_type 12, 11, 4
	rest 2
	note_type 5, 11, 4
	note F#, 6
	rest 1
	note_type 1, 11, 4
	rest 1
	note_type 6, 11, 4
	rest 1
	note_type 1, 11, 4
	rest 16
	rest 14
	note_type 5, 11, 4
	note F#, 2
	note_type 1, 11, 4
	rest 14
	note_type 5, 11, 4
	note F#, 4
	note_type 1, 11, 4
	rest 16
	rest 12
	note_type 5, 11, 4
	note F#, 4
	note_type 1, 11, 4
	rest 16
	rest 12
	note_type 5, 11, 4
	note F#, 2
	note_type 1, 11, 4
	rest 14
	note_type 12, 11, 4
	rest 2
	note_type 5, 11, 4
	octave 1
	note B_, 2
	octave 2
	note_type 1, 11, 4
	rest 14
	note_type 5, 11, 4
	note D_, 2
	note_type 1, 11, 4
	rest 14
	note_type 12, 11, 4
	rest 2
	octave 1
	note_type 5, 11, 4
	note F#, 2
	note_type 1, 11, 4
	rest 14
	note_type 5, 11, 4
	note B_, 2
	octave 2
	note_type 1, 11, 4
	rest 14
	note_type 12, 11, 4
	rest 2
	note_type 5, 11, 4
	note G_, 6
	rest 1
	note_type 1, 11, 4
	rest 1
	note_type 6, 11, 4
	rest 1
	note_type 1, 11, 4
	rest 16
	rest 14
	note_type 5, 11, 4
	note G_, 2
	note_type 1, 11, 4
	rest 14
	note_type 5, 11, 4
	note G_, 4
	note_type 1, 11, 4
	rest 16
	rest 12
	note_type 5, 11, 4
	note G_, 4
	note_type 1, 11, 4
	rest 16
	rest 12
	note_type 5, 11, 4
	note F#, 2
	note_type 1, 11, 4
	rest 14
	note_type 12, 11, 4
	rest 2
	note_type 5, 11, 4
	octave 1
	note B_, 2
	octave 2
	note_type 1, 11, 4
	rest 14
	note_type 5, 11, 4
	note D_, 2
	note_type 1, 11, 4
	rest 14
	note_type 12, 11, 4
	rest 2
	octave 1
	note_type 5, 11, 4
	note F#, 2
	note_type 1, 11, 4
	rest 14
	note_type 5, 11, 4
	note B_, 2
	octave 2
	note_type 1, 11, 4
	rest 14
	note_type 12, 11, 4
	rest 2
	note_type 5, 11, 7
	note D_, 8
	rest 1
	note_type 1, 11, 7
	rest 3
	note_type 6, 11, 7
	rest 1
	note_type 1, 11, 7
	rest 2
	note_type 7, 11, 7
	rest 1
	note_type 1, 11, 7
	rest 1
	note_type 8, 11, 7
	rest 1
	note_type 1, 11, 7
	rest 16
	rest 8
	note_type 5, 11, 7
	note F#, 8
	rest 1
	note_type 1, 11, 7
	rest 3
	note_type 6, 11, 7
	rest 1
	note_type 1, 11, 7
	rest 2
	note_type 7, 11, 7
	rest 1
	note_type 1, 11, 7
	rest 1
	note_type 8, 11, 7
	rest 1
	note_type 1, 11, 7
	rest 16
	rest 8
	note_type 12, 11, 7
Music_BossBattle_branch_19f26b:
	note_type 5, 11, 7
	octave 1
	tempo 95
	note B_, 6
	octave 2
	rest 1
	note_type 1, 11, 7
	rest 1
	note_type 6, 11, 7
	rest 1
	note_type 1, 11, 7
	rest 16
	rest 14
	note_type 5, 11, 7
	note E_, 6
	rest 1
	note_type 1, 11, 7
	rest 1
	note_type 6, 11, 7
	rest 1
	note_type 1, 11, 7
	rest 16
	rest 14
	note_type 5, 11, 7
	octave 1
	note B_, 4
	octave 2
	note_type 1, 11, 7
	rest 16
	rest 12
	note_type 5, 11, 7
	note F#, 6
	rest 1
	note_type 1, 11, 7
	rest 1
	note_type 6, 11, 7
	rest 1
	note_type 1, 11, 7
	rest 16
	rest 14
	note_type 5, 11, 7
	note E_, 6
	rest 1
	note_type 1, 11, 7
	rest 1
	note_type 6, 11, 7
	rest 1
	note_type 1, 11, 7
	rest 16
	rest 14
	note_type 5, 11, 7
	octave 1
	note B_, 4
	note_type 1, 11, 7
	rest 16
	rest 12
	note_type 5, 11, 7
	note A_, 6
	rest 1
	note_type 1, 11, 7
	rest 1
	note_type 6, 11, 7
	rest 1
	note_type 1, 11, 7
	rest 16
	rest 14
	octave 2
	note_type 5, 11, 7
	note E_, 6
	rest 1
	note_type 1, 11, 7
	rest 1
	note_type 6, 11, 7
	rest 1
	note_type 1, 11, 7
	rest 16
	rest 14
	octave 1
	note_type 5, 11, 7
	note A_, 4
	note_type 1, 11, 7
	rest 16
	rest 12
	octave 2
	note_type 5, 11, 7
	note F#, 6
	rest 1
	note_type 1, 11, 7
	rest 1
	note_type 6, 11, 7
	rest 1
	note_type 1, 11, 7
	rest 16
	rest 14
	note_type 5, 11, 7
	note E_, 6
	rest 1
	note_type 1, 11, 7
	rest 1
	note_type 6, 11, 7
	rest 1
	note_type 1, 11, 7
	rest 16
	rest 14
	octave 1
	note_type 5, 11, 7
	note A_, 4
	note_type 1, 11, 7
	rest 16
	rest 12
	note_type 5, 11, 7
	note B_, 6
	octave 2
	rest 1
	note_type 1, 11, 7
	rest 1
	note_type 6, 11, 7
	rest 1
	note_type 1, 11, 7
	rest 16
	rest 14
	note_type 5, 11, 7
	note E_, 6
	rest 1
	note_type 1, 11, 7
	rest 1
	note_type 6, 11, 7
	rest 1
	note_type 1, 11, 7
	rest 16
	rest 14
	note_type 5, 11, 7
	octave 1
	note B_, 4
	octave 2
	note_type 1, 11, 7
	rest 16
	rest 12
	note_type 5, 11, 7
	note F#, 6
	rest 1
	note_type 1, 11, 7
	rest 1
	note_type 6, 11, 7
	rest 1
	note_type 1, 11, 7
	rest 16
	rest 14
	note_type 5, 11, 7
	note E_, 6
	rest 1
	note_type 1, 11, 7
	rest 1
	note_type 6, 11, 7
	rest 1
	note_type 1, 11, 7
	rest 16
	rest 14
	note_type 5, 11, 7
	octave 1
	note B_, 4
	note_type 1, 11, 7
	rest 16
	rest 12
	note_type 5, 11, 7
	note F#, 6
	rest 1
	note_type 1, 11, 7
	rest 1
	note_type 6, 11, 7
	rest 1
	note_type 1, 11, 7
	rest 16
	rest 14
	note_type 5, 11, 7
	note A#, 6
	rest 1
	note_type 1, 11, 7
	rest 1
	note_type 6, 11, 7
	rest 1
	note_type 1, 11, 7
	rest 16
	rest 14
	note_type 5, 11, 7
	note F#, 4
	note_type 1, 11, 7
	rest 16
	rest 12
	octave 2
	note_type 5, 11, 7
	note C#, 6
	rest 1
	note_type 1, 11, 7
	rest 1
	note_type 6, 11, 7
	rest 1
	note_type 1, 11, 7
	rest 16
	rest 14
	note_type 5, 11, 7
	octave 1
	note A#, 6
	rest 1
	note_type 1, 11, 7
	rest 1
	note_type 6, 11, 7
	rest 1
	note_type 1, 11, 7
	rest 16
	rest 14
	note_type 5, 11, 7
	note F#, 4
	note_type 1, 11, 7
	rest 16
	rest 12
	note_type 5, 11, 7
	note B_, 6
	octave 2
	rest 1
	note_type 1, 11, 7
	rest 1
	note_type 6, 11, 7
	rest 1
	note_type 1, 11, 7
	rest 16
	rest 14
	note_type 5, 11, 7
	note E_, 6
	rest 1
	note_type 1, 11, 7
	rest 1
	note_type 6, 11, 7
	rest 1
	note_type 1, 11, 7
	rest 16
	rest 14
	note_type 5, 11, 7
	octave 1
	note B_, 4
	octave 2
	note_type 1, 11, 7
	rest 16
	rest 12
	note_type 5, 11, 7
	note F#, 6
	rest 1
	note_type 1, 11, 7
	rest 1
	note_type 6, 11, 7
	rest 1
	note_type 1, 11, 7
	rest 16
	rest 14
	note_type 5, 11, 7
	note E_, 6
	rest 1
	note_type 1, 11, 7
	rest 1
	note_type 6, 11, 7
	rest 1
	note_type 1, 11, 7
	rest 16
	rest 14
	note_type 5, 11, 7
	octave 1
	note B_, 4
	note_type 1, 11, 7
	rest 16
	rest 12
	note_type 5, 11, 7
	note A_, 6
	rest 1
	note_type 1, 11, 7
	rest 1
	note_type 6, 11, 7
	rest 1
	note_type 1, 11, 7
	rest 16
	rest 14
	octave 2
	note_type 5, 11, 7
	note E_, 6
	rest 1
	note_type 1, 11, 7
	rest 1
	note_type 6, 11, 7
	rest 1
	note_type 1, 11, 7
	rest 16
	rest 14
	octave 1
	note_type 5, 11, 7
	note A_, 4
	note_type 1, 11, 7
	rest 16
	rest 12
	octave 2
	note_type 5, 11, 7
	note F#, 6
	rest 1
	note_type 1, 11, 7
	rest 1
	note_type 6, 11, 7
	rest 1
	note_type 1, 11, 7
	rest 16
	rest 14
	note_type 5, 11, 7
	note E_, 6
	rest 1
	note_type 1, 11, 7
	rest 1
	note_type 6, 11, 7
	rest 1
	note_type 1, 11, 7
	rest 16
	rest 14
	octave 1
	note_type 5, 11, 7
	note A_, 4
	note_type 1, 11, 7
	rest 16
	rest 12
	note_type 5, 11, 7
	note B_, 6
	octave 2
	rest 1
	note_type 1, 11, 7
	rest 1
	note_type 6, 11, 7
	rest 1
	note_type 1, 11, 7
	rest 16
	rest 14
	note_type 5, 11, 7
	note E_, 6
	rest 1
	note_type 1, 11, 7
	rest 1
	note_type 6, 11, 7
	rest 1
	note_type 1, 11, 7
	rest 16
	rest 14
	note_type 5, 11, 7
	octave 1
	note B_, 4
	octave 2
	note_type 1, 11, 7
	rest 16
	rest 12
	note_type 5, 11, 7
	note F#, 6
	rest 1
	note_type 1, 11, 7
	rest 1
	note_type 6, 11, 7
	rest 1
	note_type 1, 11, 7
	rest 16
	rest 14
	note_type 5, 11, 7
	note E_, 6
	rest 1
	note_type 1, 11, 7
	rest 1
	note_type 6, 11, 7
	rest 1
	note_type 1, 11, 7
	rest 16
	rest 14
	note_type 5, 11, 7
	octave 1
	note B_, 4
	note_type 1, 11, 7
	rest 16
	rest 12
	note_type 5, 11, 7
	note B_, 6
	octave 2
	rest 1
	note_type 1, 11, 7
	rest 1
	note_type 6, 11, 7
	rest 1
	note_type 1, 11, 7
	rest 16
	rest 14
	note_type 5, 11, 7
	note E_, 6
	rest 1
	note_type 1, 11, 7
	rest 1
	note_type 6, 11, 7
	rest 1
	note_type 1, 11, 7
	rest 16
	rest 14
	note_type 5, 11, 7
	octave 1
	note B_, 4
	octave 2
	note_type 1, 11, 7
	rest 16
	rest 12
	note_type 5, 11, 7
	note G_, 6
	rest 1
	note_type 1, 11, 7
	rest 1
	note_type 6, 11, 7
	rest 1
	note_type 1, 11, 7
	rest 16
	rest 14
	note_type 5, 11, 7
	note E_, 6
	rest 1
	note_type 1, 11, 7
	rest 1
	note_type 6, 11, 7
	rest 1
	note_type 1, 11, 7
	rest 16
	rest 14
	note_type 5, 11, 7
	octave 1
	note B_, 4
	note_type 1, 11, 7
	rest 16
	rest 12
	duty_cycle 2
	note_type 5, 10, 2
	octave 2
	note B_, 2
	note_type 1, 10, 2
	rest 14
	note_type 12, 10, 2
	rest 2
	note_type 5, 10, 2
	octave 3
	note B_, 2
	note_type 1, 10, 2
	rest 14
	note_type 5, 10, 2
	octave 2
	note B_, 2
	note_type 1, 10, 2
	rest 14
	note_type 12, 10, 2
	rest 2
	note_type 5, 10, 2
	octave 3
	note B_, 2
	note_type 1, 10, 2
	rest 14
	note_type 5, 10, 2
	octave 2
	note B_, 2
	note_type 1, 10, 2
	rest 14
	note_type 5, 10, 2
	octave 3
	note B_, 2
	note_type 1, 10, 2
	rest 14
	note_type 5, 10, 2
	octave 2
	note B_, 2
	note_type 1, 10, 2
	rest 14
	note_type 12, 10, 2
	rest 2
	note_type 5, 10, 2
	octave 3
	note B_, 2
	note_type 1, 10, 2
	rest 14
	note_type 5, 10, 2
	octave 2
	note B_, 2
	note_type 1, 10, 2
	rest 14
	note_type 12, 10, 2
	rest 2
	note_type 5, 10, 2
	octave 3
	note B_, 2
	note_type 1, 10, 2
	rest 14
	note_type 5, 10, 2
	octave 2
	note B_, 2
	note_type 1, 10, 2
	rest 14
	note_type 5, 10, 2
	octave 3
	note B_, 2
	note_type 1, 10, 2
	rest 14
	note_type 5, 10, 2
	note E_, 2
	note_type 1, 10, 2
	rest 14
	note_type 12, 10, 2
	rest 2
	octave 4
	note_type 5, 10, 2
	note E_, 2
	note_type 1, 10, 2
	rest 14
	octave 3
	note_type 5, 10, 2
	note E_, 2
	note_type 1, 10, 2
	rest 14
	note_type 12, 10, 2
	rest 2
	octave 4
	note_type 5, 10, 2
	note E_, 2
	note_type 1, 10, 2
	rest 14
	octave 3
	note_type 5, 10, 2
	note E_, 2
	note_type 1, 10, 2
	rest 14
	octave 4
	note_type 5, 10, 2
	note E_, 2
	note_type 1, 10, 2
	rest 14
	octave 3
	note_type 5, 10, 2
	note E_, 2
	note_type 1, 10, 2
	rest 14
	note_type 12, 10, 2
	rest 2
	octave 4
	note_type 5, 10, 2
	note E_, 2
	note_type 1, 10, 2
	rest 14
	octave 3
	note_type 5, 10, 2
	note E_, 2
	note_type 1, 10, 2
	rest 14
	note_type 12, 10, 2
	rest 2
	octave 4
	note_type 5, 10, 2
	note E_, 2
	note_type 1, 10, 2
	rest 14
	octave 3
	note_type 5, 10, 2
	note E_, 2
	note_type 1, 10, 2
	rest 14
	octave 4
	note_type 5, 10, 2
	note E_, 2
	note_type 1, 10, 2
	rest 14
	note_type 5, 10, 2
	octave 2
	note B_, 2
	note_type 1, 10, 2
	rest 14
	note_type 12, 10, 2
	rest 2
	note_type 5, 10, 2
	octave 3
	note B_, 2
	note_type 1, 10, 2
	rest 14
	note_type 5, 10, 2
	octave 2
	note B_, 2
	note_type 1, 10, 2
	rest 14
	note_type 12, 10, 2
	rest 2
	note_type 5, 10, 2
	octave 3
	note B_, 2
	note_type 1, 10, 2
	rest 14
	note_type 5, 10, 2
	octave 2
	note B_, 2
	note_type 1, 10, 2
	rest 14
	note_type 5, 10, 2
	octave 3
	note B_, 2
	note_type 1, 10, 2
	rest 14
	note_type 5, 10, 2
	octave 2
	note B_, 2
	note_type 1, 10, 2
	rest 14
	note_type 12, 10, 2
	rest 2
	note_type 5, 10, 2
	octave 3
	note B_, 2
	note_type 1, 10, 2
	rest 14
	note_type 5, 10, 2
	octave 2
	note B_, 2
	note_type 1, 10, 2
	rest 14
	note_type 12, 10, 2
	rest 2
	note_type 5, 10, 2
	octave 3
	note B_, 2
	note_type 1, 10, 2
	rest 14
	note_type 5, 10, 2
	octave 2
	note B_, 2
	note_type 1, 10, 2
	rest 14
	note_type 5, 10, 2
	octave 3
	note B_, 2
	note_type 1, 10, 2
	rest 14
	note_type 5, 10, 2
	note D_, 2
	note_type 1, 10, 2
	rest 14
	note_type 12, 10, 2
	rest 2
	octave 4
	note_type 5, 10, 2
	note D_, 2
	note_type 1, 10, 2
	rest 14
	octave 3
	note_type 5, 10, 2
	note D_, 2
	note_type 1, 10, 2
	rest 14
	note_type 12, 10, 2
	rest 2
	octave 4
	note_type 5, 10, 2
	note D_, 2
	note_type 1, 10, 2
	rest 14
	octave 3
	note_type 5, 10, 2
	note D_, 2
	note_type 1, 10, 2
	rest 14
	octave 4
	note_type 5, 10, 2
	note D_, 2
	note_type 1, 10, 2
	rest 14
	octave 3
	note_type 5, 10, 2
	note D_, 2
	note_type 1, 10, 2
	rest 14
	note_type 12, 10, 2
	rest 2
	octave 4
	note_type 5, 10, 2
	note D_, 2
	note_type 1, 10, 2
	rest 14
	octave 3
	note_type 5, 10, 2
	note D_, 2
	note_type 1, 10, 2
	rest 14
	note_type 12, 10, 2
	rest 2
	octave 4
	note_type 5, 10, 2
	note D_, 2
	note_type 1, 10, 2
	rest 14
	octave 3
	note_type 5, 10, 2
	note D_, 2
	note_type 1, 10, 2
	rest 14
	octave 4
	note_type 5, 10, 2
	note D_, 2
	note_type 1, 10, 2
	rest 14
	note_type 5, 10, 2
	octave 2
	note B_, 2
	note_type 1, 10, 2
	rest 14
	note_type 12, 10, 2
	rest 2
	note_type 5, 10, 2
	octave 3
	note B_, 2
	note_type 1, 10, 2
	rest 14
	note_type 5, 10, 2
	octave 2
	note B_, 2
	note_type 1, 10, 2
	rest 14
	note_type 12, 10, 2
	rest 2
	note_type 5, 10, 2
	octave 3
	note B_, 2
	note_type 1, 10, 2
	rest 14
	note_type 5, 10, 2
	octave 2
	note B_, 2
	note_type 1, 10, 2
	rest 14
	note_type 5, 10, 2
	octave 3
	note B_, 2
	note_type 1, 10, 2
	rest 14
	note_type 5, 10, 2
	octave 2
	note B_, 2
	note_type 1, 10, 2
	rest 14
	note_type 12, 10, 2
	rest 2
	note_type 5, 10, 2
	octave 3
	note B_, 2
	note_type 1, 10, 2
	rest 14
	note_type 5, 10, 2
	octave 2
	note B_, 2
	note_type 1, 10, 2
	rest 14
	note_type 12, 10, 2
	rest 2
	note_type 5, 10, 2
	octave 3
	note B_, 2
	note_type 1, 10, 2
	rest 14
	note_type 5, 10, 2
	octave 2
	note B_, 2
	note_type 1, 10, 2
	rest 14
	note_type 5, 10, 2
	octave 3
	note B_, 2
	note_type 1, 10, 2
	rest 14
	note_type 12, 11, 7
	duty_cycle 3
	octave 2
	sound_jump Music_BossBattle_branch_19f26b

Music_BossBattle_Ch2:
	duty_cycle 3
	pitch_offset 1
	vibrato 8, 3, 6
	note_type 12, 12, 2
Music_BossBattle_branch_19f11b:
	note_type 9, 12, 2
	octave 2
	note B_, 1
	note_type 1, 12, 2
	rest 3
	note_type 9, 12, 2
	note A#, 1
	note_type 1, 12, 2
	rest 3
	note_type 9, 12, 2
	note A_, 1
	note_type 1, 12, 2
	rest 3
	note_type 9, 12, 2
	note G#, 1
	note_type 1, 12, 2
	rest 3
	note_type 12, 12, 2
	sound_loop 8, Music_BossBattle_branch_19f11b
	note_type 9, 12, 4
	octave 2
	note B_, 2
	note_type 1, 12, 4
	rest 6
	note_type 12, 12, 4
	rest 2
	note_type 9, 12, 4
	note F#, 2
	note_type 1, 12, 4
	rest 6
	note_type 9, 12, 4
	note B_, 2
	note_type 1, 12, 4
	rest 6
	note_type 12, 12, 4
	rest 2
	note_type 9, 12, 4
	note F#, 2
	note_type 1, 12, 4
	rest 6
	note_type 9, 12, 4
	note B_, 2
	octave 3
	note_type 1, 12, 4
	rest 6
	note_type 12, 12, 4
	rest 2
	note_type 9, 12, 4
	note C_, 6
	note_type 1, 12, 4
	rest 16
	rest 2
	note_type 9, 12, 4
	note C_, 2
	note_type 1, 12, 4
	rest 6
	note_type 9, 12, 4
	note C_, 4
	note_type 1, 12, 4
	rest 12
	note_type 9, 12, 4
	note C_, 4
	note_type 1, 12, 4
	rest 12
	note_type 9, 12, 4
	octave 2
	note B_, 2
	note_type 1, 12, 4
	rest 6
	note_type 12, 12, 4
	rest 2
	note_type 9, 12, 4
	note F#, 2
	note_type 1, 12, 4
	rest 6
	note_type 9, 12, 4
	note B_, 2
	note_type 1, 12, 4
	rest 6
	note_type 12, 12, 4
	rest 2
	note_type 9, 12, 4
	note F#, 2
	note_type 1, 12, 4
	rest 6
	note_type 9, 12, 4
	note B_, 2
	octave 3
	note_type 1, 12, 4
	rest 6
	note_type 12, 12, 4
	rest 2
	note_type 9, 12, 4
	note C#, 6
	note_type 1, 12, 4
	rest 16
	rest 2
	note_type 9, 12, 4
	note C#, 2
	note_type 1, 12, 4
	rest 6
	note_type 9, 12, 4
	note C#, 4
	note_type 1, 12, 4
	rest 12
	note_type 9, 12, 4
	note C#, 4
	note_type 1, 12, 4
	rest 12
	note_type 9, 12, 4
	octave 2
	note B_, 2
	note_type 1, 12, 4
	rest 6
	note_type 12, 12, 4
	rest 2
	note_type 9, 12, 4
	note F#, 2
	note_type 1, 12, 4
	rest 6
	note_type 9, 12, 4
	note B_, 2
	note_type 1, 12, 4
	rest 6
	note_type 12, 12, 4
	rest 2
	note_type 9, 12, 4
	note F#, 2
	note_type 1, 12, 4
	rest 6
	note_type 9, 12, 4
	note B_, 2
	octave 3
	note_type 1, 12, 4
	rest 6
	note_type 12, 12, 4
	rest 2
	note_type 9, 12, 4
	note C_, 6
	note_type 1, 12, 4
	rest 16
	rest 2
	note_type 9, 12, 4
	note C_, 2
	note_type 1, 12, 4
	rest 6
	note_type 9, 12, 4
	note C_, 4
	note_type 1, 12, 4
	rest 12
	note_type 9, 12, 4
	note C_, 4
	note_type 1, 12, 4
	rest 12
	note_type 9, 12, 4
	octave 2
	note B_, 2
	note_type 1, 12, 4
	rest 6
	note_type 12, 12, 4
	rest 2
	note_type 9, 12, 4
	note F#, 2
	note_type 1, 12, 4
	rest 6
	note_type 9, 12, 4
	note B_, 2
	note_type 1, 12, 4
	rest 6
	note_type 12, 12, 4
	rest 2
	note_type 9, 12, 4
	note F#, 2
	note_type 1, 12, 4
	rest 6
	note_type 9, 12, 4
	note B_, 2
	octave 3
	note_type 1, 12, 4
	rest 6
	note_type 12, 12, 4
	rest 2
	note_type 9, 12, 7
	note D_, 8
	note_type 1, 12, 7
	rest 16
	rest 8
	note_type 9, 12, 7
	note C_, 8
	note_type 1, 12, 7
	rest 16
	rest 8
	note_type 12, 12, 7
Music_BossBattle_branch_19f167:
	note_type 9, 12, 7
	octave 2
	note B_, 6
	octave 3
	note_type 1, 12, 7
	rest 16
	rest 2
	note_type 9, 12, 7
	note F#, 4
	note_type 1, 12, 7
	rest 12
	note_type 9, 12, 7
	note E_, 1
	note_type 1, 12, 7
	rest 3
	note_type 9, 12, 7
	note F#, 1
	note_type 1, 12, 7
	rest 3
	note_type 9, 12, 7
	note G_, 2
	note_type 1, 12, 7
	rest 6
	note_type 9, 12, 7
	note F#, 2
	note_type 1, 12, 7
	rest 6
	note_type 9, 12, 7
	note E_, 2
	note_type 1, 12, 7
	rest 6
	note_type 9, 12, 7
	note F#, 2
	note_type 1, 12, 7
	rest 6
	note_type 9, 12, 7
	note G_, 4
	note_type 1, 12, 7
	rest 12
	note_type 9, 12, 7
	note A_, 4
	note_type 1, 12, 7
	rest 12
	note_type 9, 12, 7
	note G_, 4
	note_type 1, 12, 7
	rest 12
	note_type 9, 12, 7
	note F#, 16
	rest 1
	note_type 1, 12, 7
	rest 7
	note_type 10, 12, 7
	rest 1
	note_type 1, 12, 7
	rest 6
	note_type 11, 12, 7
	rest 1
	note_type 1, 12, 7
	rest 5
	note_type 9, 12, 7
	note D_, 16
	rest 1
	note_type 1, 12, 7
	rest 7
	note_type 10, 12, 7
	rest 1
	note_type 1, 12, 7
	rest 6
	note_type 11, 12, 7
	rest 1
	note_type 1, 12, 7
	rest 5
	note_type 9, 12, 7
	octave 2
	note B_, 6
	octave 3
	note_type 1, 12, 7
	rest 16
	rest 2
	note_type 9, 12, 7
	note F#, 4
	note_type 1, 12, 7
	rest 12
	note_type 9, 12, 7
	note E_, 1
	note_type 1, 12, 7
	rest 3
	note_type 9, 12, 7
	note F#, 1
	note_type 1, 12, 7
	rest 3
	note_type 9, 12, 7
	note G_, 2
	note_type 1, 12, 7
	rest 6
	note_type 9, 12, 7
	note F#, 2
	note_type 1, 12, 7
	rest 6
	note_type 9, 12, 7
	note E_, 2
	note_type 1, 12, 7
	rest 6
	note_type 9, 12, 7
	note F#, 2
	note_type 1, 12, 7
	rest 6
	note_type 9, 12, 7
	note G_, 4
	note_type 1, 12, 7
	rest 12
	note_type 9, 12, 7
	note A_, 4
	note_type 1, 12, 7
	rest 12
	note_type 9, 12, 7
	note A#, 4
	note_type 1, 12, 7
	rest 12
	note_type 9, 12, 7
	note F#, 16
	rest 1
	note_type 1, 12, 7
	rest 7
	note_type 10, 12, 7
	rest 1
	note_type 1, 12, 7
	rest 6
	note_type 11, 12, 7
	rest 1
	note_type 1, 12, 7
	rest 5
	note_type 9, 12, 7
	note C#, 16
	rest 1
	note_type 1, 12, 7
	rest 7
	note_type 10, 12, 7
	rest 1
	note_type 1, 12, 7
	rest 6
	note_type 11, 12, 7
	rest 1
	note_type 1, 12, 7
	rest 5
	note_type 9, 12, 7
	octave 2
	note B_, 6
	octave 3
	note_type 1, 12, 7
	rest 16
	rest 2
	note_type 9, 12, 7
	note F#, 4
	note_type 1, 12, 7
	rest 12
	note_type 9, 12, 7
	note E_, 1
	note_type 1, 12, 7
	rest 3
	note_type 9, 12, 7
	note F#, 1
	note_type 1, 12, 7
	rest 3
	note_type 9, 12, 7
	note G_, 2
	note_type 1, 12, 7
	rest 6
	note_type 9, 12, 7
	note F#, 2
	note_type 1, 12, 7
	rest 6
	note_type 9, 12, 7
	note E_, 2
	note_type 1, 12, 7
	rest 6
	note_type 9, 12, 7
	note F#, 2
	note_type 1, 12, 7
	rest 6
	note_type 9, 12, 7
	note G_, 4
	note_type 1, 12, 7
	rest 12
	note_type 9, 12, 7
	note A_, 4
	note_type 1, 12, 7
	rest 12
	note_type 9, 12, 7
	note G_, 4
	note_type 1, 12, 7
	rest 12
	note_type 9, 12, 7
	note F#, 16
	rest 1
	note_type 1, 12, 7
	rest 7
	note_type 10, 12, 7
	rest 1
	note_type 1, 12, 7
	rest 6
	note_type 11, 12, 7
	rest 1
	note_type 1, 12, 7
	rest 5
	note_type 9, 12, 7
	note D_, 16
	rest 1
	note_type 1, 12, 7
	rest 7
	note_type 10, 12, 7
	rest 1
	note_type 1, 12, 7
	rest 6
	note_type 11, 12, 7
	rest 1
	note_type 1, 12, 7
	rest 5
	note_type 9, 12, 7
	octave 2
	note B_, 6
	octave 3
	note_type 1, 12, 7
	rest 16
	rest 2
	note_type 9, 12, 7
	note F#, 4
	note_type 1, 12, 7
	rest 12
	note_type 9, 12, 7
	note E_, 1
	note_type 1, 12, 7
	rest 3
	note_type 9, 12, 7
	note F#, 1
	note_type 1, 12, 7
	rest 3
	note_type 9, 12, 7
	note G_, 2
	note_type 1, 12, 7
	rest 6
	note_type 9, 12, 7
	note F#, 2
	note_type 1, 12, 7
	rest 6
	note_type 9, 12, 7
	note E_, 2
	note_type 1, 12, 7
	rest 6
	note_type 9, 12, 7
	note F#, 2
	note_type 1, 12, 7
	rest 6
	note_type 9, 12, 7
	note G_, 4
	note_type 1, 12, 7
	rest 12
	note_type 9, 12, 7
	note A_, 4
	note_type 1, 12, 7
	rest 12
	note_type 9, 12, 7
	note A#, 4
	note_type 1, 12, 7
	rest 12
	note_type 9, 12, 7
	note B_, 16
	rest 1
	note_type 1, 12, 7
	rest 7
	note_type 10, 12, 7
	rest 1
	note_type 1, 12, 7
	rest 6
	note_type 11, 12, 7
	rest 1
	note_type 1, 12, 7
	rest 5
	note_type 9, 12, 7
	octave 2
	note B_, 16
	rest 1
	note_type 1, 12, 7
	rest 7
	note_type 10, 12, 7
	rest 1
	note_type 1, 12, 7
	rest 6
	note_type 11, 12, 7
	rest 1
	note_type 1, 12, 7
	rest 5
	note_type 9, 12, 2
	octave 3
	note B_, 2
	note_type 1, 12, 2
	rest 6
	note_type 9, 12, 2
	note B_, 2
	note_type 1, 12, 2
	rest 6
	note_type 9, 12, 7
	note F#, 8
	note_type 1, 12, 7
	rest 16
	rest 8
	note_type 12, 12, 7
	rest 2
	note_type 9, 12, 2
	note C_, 2
	note_type 1, 12, 2
	rest 6
	note_type 9, 12, 2
	octave 2
	note B_, 2
	note_type 1, 12, 2
	rest 6
	note_type 9, 12, 2
	note B_, 2
	note_type 1, 12, 2
	rest 6
	note_type 9, 12, 7
	note F#, 12
	rest 1
	note_type 1, 12, 7
	rest 3
	note_type 10, 12, 7
	rest 1
	note_type 1, 12, 7
	rest 2
	note_type 11, 12, 7
	rest 1
	note_type 1, 12, 7
	rest 1
	note_type 9, 12, 7
	note B_, 8
	note_type 1, 12, 7
	rest 16
	rest 8
	note_type 9, 12, 2
	note A_, 4
	note_type 1, 12, 2
	rest 12
	note_type 9, 12, 2
	note G_, 2
	note_type 1, 12, 2
	rest 6
	note_type 9, 12, 2
	note G_, 1
	note_type 1, 12, 2
	rest 3
	note_type 9, 12, 2
	note F#, 1
	note_type 1, 12, 2
	rest 3
	note_type 9, 12, 7
	note G_, 16
	rest 1
	note_type 1, 12, 7
	rest 7
	note_type 10, 12, 7
	rest 1
	note_type 1, 12, 7
	rest 6
	note_type 11, 12, 7
	rest 1
	note_type 1, 12, 7
	rest 5
	note_type 9, 12, 2
	octave 3
	note B_, 2
	note_type 1, 12, 2
	rest 6
	note_type 9, 12, 2
	note B_, 2
	note_type 1, 12, 2
	rest 6
	note_type 9, 12, 7
	note F#, 8
	note_type 1, 12, 7
	rest 16
	rest 8
	note_type 12, 12, 7
	rest 2
	note_type 9, 12, 2
	note C_, 2
	note_type 1, 12, 2
	rest 6
	note_type 9, 12, 2
	octave 2
	note B_, 2
	note_type 1, 12, 2
	rest 6
	note_type 9, 12, 2
	note B_, 2
	note_type 1, 12, 2
	rest 6
	note_type 9, 12, 7
	note F#, 12
	rest 1
	note_type 1, 12, 7
	rest 3
	note_type 10, 12, 7
	rest 1
	note_type 1, 12, 7
	rest 2
	note_type 11, 12, 7
	rest 1
	note_type 1, 12, 7
	rest 1
	note_type 9, 12, 7
	note A_, 8
	note_type 1, 12, 7
	rest 16
	rest 8
	note_type 9, 12, 2
	note D_, 3
	note_type 1, 12, 2
	rest 9
	note_type 9, 12, 2
	note E_, 3
	note_type 1, 12, 2
	rest 9
	note_type 9, 12, 2
	note F#, 2
	note_type 1, 12, 2
	rest 6
	note_type 9, 12, 7
	note E_, 8
	note_type 1, 12, 7
	rest 16
	rest 8
	note_type 9, 12, 2
	note A#, 1
	note_type 1, 12, 2
	rest 3
	note_type 9, 12, 2
	note B_, 1
	octave 3
	note_type 1, 12, 2
	rest 3
	note_type 9, 12, 2
	note C_, 1
	note_type 1, 12, 2
	rest 3
	note_type 9, 12, 2
	note D_, 1
	note_type 1, 12, 2
	rest 3
	note_type 9, 12, 2
	note E_, 1
	note_type 1, 12, 2
	rest 3
	note_type 9, 12, 2
	note F#, 1
	note_type 1, 12, 2
	rest 3
	note_type 9, 12, 2
	note G_, 1
	note_type 1, 12, 2
	rest 3
	note_type 9, 12, 2
	note A#, 1
	note_type 1, 12, 2
	rest 3
	note_type 9, 12, 2
	note B_, 2
	note_type 1, 12, 2
	rest 6
	note_type 9, 12, 2
	octave 2
	note B_, 2
	note_type 1, 12, 2
	rest 6
	note_type 9, 12, 2
	note B_, 2
	note_type 1, 12, 2
	rest 6
	note_type 9, 12, 2
	octave 3
	note B_, 2
	note_type 1, 12, 2
	rest 6
	note_type 9, 12, 2
	octave 2
	note B_, 2
	note_type 1, 12, 2
	rest 6
	note_type 9, 12, 2
	note B_, 2
	note_type 1, 12, 2
	rest 6
	note_type 9, 12, 2
	octave 3
	note B_, 2
	note_type 1, 12, 2
	rest 6
	note_type 9, 12, 2
	octave 2
	note B_, 2
	octave 3
	note_type 1, 12, 2
	rest 6
	note_type 9, 12, 7
	note D_, 8
	note_type 1, 12, 7
	rest 16
	rest 8
	note_type 9, 12, 7
	note C_, 8
	note_type 1, 12, 7
	rest 16
	rest 8
	note_type 12, 12, 7
	sound_jump Music_BossBattle_branch_19f167

Music_BossBattle_Ch3:
	note_type 12, 2, 4
	octave 3
	note B_, 2
	note B_, 1
	note B_, 1
	octave 4
	note C_, 2
	note C_, 1
	octave 3
	note B_, 1
	octave 4
	note C#, 2
	note C#, 1
	note C_, 1
	note D_, 2
	note D_, 1
	note C#, 1
	note D#, 2
	note D#, 1
	note D_, 1
	note E_, 2
	note E_, 1
	note D#, 1
	note F_, 2
	note F_, 1
	note E_, 1
	note F#, 4
	octave 3
	note F#, 2
	note B_, 2
	note F#, 2
	note B_, 2
	note F#, 2
	note B_, 2
	octave 4
	note D_, 2
	octave 3
	note B_, 2
	note G_, 2
	octave 4
	note C_, 2
	octave 3
	note G_, 2
	octave 4
	note C_, 2
	octave 3
	note G_, 2
	octave 4
	note C_, 2
	note D#, 2
	note C_, 2
	octave 3
	note F#, 2
	note B_, 2
	note F#, 2
	note B_, 2
	note F#, 2
	note B_, 2
	octave 4
	note D_, 2
	octave 3
	note B_, 2
	note C#, 2
	note F#, 2
	note C#, 2
	note F#, 2
	note C#, 2
	note F#, 2
	note A#, 2
	note F#, 2
	note F#, 2
	note B_, 2
	note F#, 2
	note B_, 2
	note F#, 2
	note B_, 2
	octave 4
	note D_, 2
	octave 3
	note B_, 2
	note G_, 2
	octave 4
	note C_, 2
	octave 3
	note G_, 2
	octave 4
	note C_, 2
	octave 3
	note G_, 2
	octave 4
	note C_, 2
	note D#, 2
	note C_, 2
	octave 3
	note F#, 2
	note B_, 2
	note F#, 2
	note B_, 2
	note F#, 2
	note B_, 2
	octave 4
	note D_, 2
	octave 3
	note B_, 2
	note B_, 16
	octave 4
	note_type 12, 1, 4
Music_BossBattle_branch_19f3ba:
	octave 3
	note_type 12, 2, 4
	note F#, 2
	note B_, 2
	octave 4
	note_type 12, 1, 4
	sound_loop 8, Music_BossBattle_branch_19f3ba
Music_BossBattle_branch_19f3c2:
	octave 3
	note_type 12, 2, 4
	note A_, 2
	octave 4
	note D_, 2
	note_type 12, 1, 4
	sound_loop 8, Music_BossBattle_branch_19f3c2
Music_BossBattle_branch_19f3c8:
	octave 3
	note_type 12, 2, 4
	note F#, 2
	note B_, 2
	octave 4
	note_type 12, 1, 4
	sound_loop 8, Music_BossBattle_branch_19f3c8
	octave 3
Music_BossBattle_branch_19f3d1:
	note_type 12, 2, 4
	note C#, 2
	note F#, 2
	note_type 12, 1, 4
	sound_loop 8, Music_BossBattle_branch_19f3d1
Music_BossBattle_branch_19f3d7:
	octave 3
	note_type 12, 2, 4
	note F#, 2
	octave 2
	note B_, 2
	octave 3
	note_type 12, 1, 4
	sound_loop 8, Music_BossBattle_branch_19f3d7
Music_BossBattle_branch_19f3df:
	octave 2
	note_type 12, 2, 4
	note A_, 2
	octave 3
	note D_, 2
	note_type 12, 1, 4
	sound_loop 8, Music_BossBattle_branch_19f3df
Music_BossBattle_branch_19f3e5:
	octave 3
	note_type 12, 2, 4
	note F#, 2
	note B_, 2
	octave 4
	note_type 12, 1, 4
	sound_loop 8, Music_BossBattle_branch_19f3e5
Music_BossBattle_branch_19f3ed:
	note_type 12, 2, 4
	octave 3
	note B_, 2
	octave 4
	note E_, 2
	note_type 12, 1, 4
	sound_loop 8, Music_BossBattle_branch_19f3ed
	octave 3
	note_type 12, 2, 4
	note F#, 2
	note B_, 2
	note F#, 2
	note B_, 2
	octave 4
	note D_, 2
	octave 3
	note B_, 2
	note F#, 2
	note B_, 2
	note F#, 2
	note B_, 2
	note F#, 2
	note B_, 2
	octave 4
	note D_, 2
	note F#, 2
	note D_, 2
	octave 3
	note B_, 2
	note B_, 2
	octave 4
	note E_, 2
	octave 3
	note B_, 2
	octave 4
	note E_, 2
	note G_, 2
	note E_, 2
	octave 3
	note B_, 2
	octave 4
	note E_, 2
	octave 3
	note B_, 2
	octave 4
	note E_, 2
	octave 3
	note B_, 2
	octave 4
	note E_, 2
	note G_, 2
	note B_, 2
	note G_, 2
	note E_, 2
	octave 3
	note F#, 2
	note B_, 2
	note F#, 2
	note B_, 2
	octave 4
	note D_, 2
	octave 3
	note B_, 2
	note F#, 2
	note B_, 2
	note F#, 2
	note B_, 2
	note F#, 2
	note B_, 2
	octave 4
	note D_, 2
	note F#, 2
	note D_, 2
	octave 3
	note B_, 2
	octave 2
	note A_, 2
	octave 3
	note D_, 2
	octave 2
	note A_, 2
	octave 3
	note D_, 2
	note F#, 2
	note D_, 2
	octave 2
	note A_, 2
	octave 3
	note D_, 2
	octave 2
	note A_, 2
	octave 3
	note D_, 2
	octave 2
	note A_, 2
	octave 3
	note D_, 2
	note F#, 2
	note A_, 2
	note F#, 2
	note D_, 2
	note B_, 4
	note B_, 6
	note F#, 2
	note G_, 2
	note A#, 2
	note B_, 16
	octave 4
	note_type 12, 1, 4
	sound_jump Music_BossBattle_branch_19f3ba
