Music_WildBattlePrism:
	channel_count 3
	channel 1, Music_WildBattlePrism_Ch1
	channel 2, Music_WildBattlePrism_Ch2
	channel 3, Music_WildBattlePrism_Ch3

Music_WildBattlePrism_Ch1:
	tempo 104
	volume 7, 7
	duty_cycle 3
	pitch_offset 2
	vibrato 18, 1, 5
	note_type 12, 11, 2
	octave 4
	note D#, 1
	note D_, 1
	note C#, 1
	note C_, 1
	note D_, 1
	note C#, 1
	note C_, 1
	octave 3
	note B_, 1
	octave 4
	note C#, 1
	note C_, 1
	octave 3
	note B_, 1
	note A#, 1
	octave 4
	note C_, 1
	octave 3
	note B_, 1
	note A#, 1
	note A_, 1
	note B_, 1
	note A#, 1
	note A_, 1
	note G#, 1
	note A#, 1
	note A_, 1
	note G#, 1
	note G_, 1
	note A_, 1
	note G#, 1
	note G_, 1
	note F#, 1
	note G#, 1
	note G_, 1
	note F#, 1
	note F_, 1
	octave 2
	volume_envelope 11, 4
	note A#, 2
	rest 2
	note D#, 2
	note F#, 2
	rest 2
	octave 1
	note A#, 2
	octave 2
	note D#, 2
	rest 2
	note B_, 6
	note B_, 2
	note B_, 4
	note B_, 4
	note A#, 2
	rest 2
	note D#, 2
	note F#, 2
	rest 2
	octave 1
	note A#, 2
	octave 2
	note D#, 2
	rest 2
	note A#, 6
	note A#, 2
	note A#, 4
	note A#, 4
	note A#, 2
	rest 2
	note D#, 2
	note F#, 2
	rest 2
	octave 1
	note A#, 2
	octave 2
	note D#, 2
	rest 2
	note B_, 6
	note B_, 2
	note B_, 4
	note B_, 4
	note A#, 2
	rest 2
	note D#, 2
	note F#, 2
	rest 2
	octave 1
	note A#, 2
	octave 2
	note D#, 2
	rest 2
	volume_envelope 11, 7
	note F#, 8
	note A#, 8
Music_WildBattlePrism_branch_19f26b:
	note D#, 6
	note G#, 6
	note D#, 4
	note A#, 6
	note G#, 6
	note D#, 4
	note C#, 6
	note G#, 6
	note C#, 4
	note A#, 6
	note G#, 6
	note C#, 4
	note D#, 6
	note G#, 6
	note D#, 4
	note A#, 6
	note G#, 6
	note D#, 4
	octave 1
	note A#, 6
	octave 2
	note D_, 6
	octave 1
	note A#, 4
	octave 2
	note F_, 6
	note D_, 6
	octave 1
	note A#, 4
	octave 2
	note D#, 6
	note G#, 6
	note D#, 4
	note A#, 6
	note G#, 6
	note D#, 4
	note C#, 6
	note G#, 6
	note C#, 4
	note A#, 6
	note G#, 6
	note C#, 4
	note D#, 6
	note G#, 6
	note D#, 4
	note A#, 6
	note G#, 6
	note D#, 4
	note D#, 6
	note G#, 6
	note D#, 4
	note B_, 6
	note G#, 6
	note D#, 4
	volume_envelope 10, 2
	duty_cycle 2
	octave 3
	note D#, 2
	rest 2
	octave 4
	note D#, 2
	octave 3
	note D#, 2
	rest 2
	octave 4
	note D#, 2
	octave 3
	note D#, 2
	octave 4
	note D#, 2
	octave 3
	note D#, 2
	rest 2
	octave 4
	note D#, 2
	octave 3
	note D#, 2
	rest 2
	octave 4
	note D#, 2
	octave 3
	note D#, 2
	octave 4
	note D#, 2
	octave 3
	note G#, 2
	rest 2
	octave 4
	note G#, 2
	octave 3
	note G#, 2
	rest 2
	octave 4
	note G#, 2
	octave 3
	note G#, 2
	octave 4
	note G#, 2
	octave 3
	note G#, 2
	rest 2
	octave 4
	note G#, 2
	octave 3
	note G#, 2
	rest 2
	octave 4
	note G#, 2
	octave 3
	note G#, 2
	octave 4
	note G#, 2
	octave 3
	note D#, 2
	rest 2
	octave 4
	note D#, 2
	octave 3
	note D#, 2
	rest 2
	octave 4
	note D#, 2
	octave 3
	note D#, 2
	octave 4
	note D#, 2
	octave 3
	note D#, 2
	rest 2
	octave 4
	note D#, 2
	octave 3
	note D#, 2
	rest 2
	octave 4
	note D#, 2
	octave 3
	note D#, 2
	octave 4
	note D#, 2
	octave 3
	note F#, 2
	rest 2
	octave 4
	note F#, 2
	octave 3
	note F#, 2
	rest 2
	octave 4
	note F#, 2
	octave 3
	note F#, 2
	octave 4
	note F#, 2
	octave 3
	note F#, 2
	rest 2
	octave 4
	note F#, 2
	octave 3
	note F#, 2
	rest 2
	octave 4
	note F#, 2
	octave 3
	note F#, 2
	octave 4
	note F#, 2
	octave 3
	note D#, 2
	rest 2
	octave 4
	note D#, 2
	octave 3
	note D#, 2
	rest 2
	octave 4
	note D#, 2
	octave 3
	note D#, 2
	octave 4
	note D#, 2
	octave 3
	note D#, 2
	rest 2
	octave 4
	note D#, 2
	octave 3
	note D#, 2
	rest 2
	octave 4
	note D#, 2
	octave 3
	note D#, 2
	octave 4
	note D#, 2
	volume_envelope 11, 7
	duty_cycle 3
	octave 2
	sound_jump Music_WildBattlePrism_branch_19f26b

Music_WildBattlePrism_Ch2:
	duty_cycle 3
	pitch_offset 1
	vibrato 8, 3, 6
	note_type 12, 12, 2
Music_WildBattlePrism_branch_19f11b:
	octave 3
	note D#, 1
	note D_, 1
	note C#, 1
	note C_, 1
	octave 2
	sound_loop 8, Music_WildBattlePrism_branch_19f11b
	octave 3
	volume_envelope 12, 4
	note D#, 2
	rest 2
	octave 2
	note A#, 2
	octave 3
	note D#, 2
	rest 2
	octave 2
	note A#, 2
	octave 3
	note D#, 2
	rest 2
	note E_, 6
	note E_, 2
	note E_, 4
	note E_, 4
	note D#, 2
	rest 2
	octave 2
	note A#, 2
	octave 3
	note D#, 2
	rest 2
	octave 2
	note A#, 2
	octave 3
	note D#, 2
	rest 2
	note F_, 6
	note F_, 2
	note F_, 4
	note F_, 4
	note D#, 2
	rest 2
	octave 2
	note A#, 2
	octave 3
	note D#, 2
	rest 2
	octave 2
	note A#, 2
	octave 3
	note D#, 2
	rest 2
	note E_, 6
	note E_, 2
	note E_, 4
	note E_, 4
	note D#, 2
	rest 2
	octave 2
	note A#, 2
	octave 3
	note D#, 2
	rest 2
	octave 2
	note A#, 2
	octave 3
	note D#, 2
	rest 2
	volume_envelope 12, 7
	note F#, 8
	note E_, 8
Music_WildBattlePrism_branch_19f167:
	note D#, 6
	note A#, 4
	note G#, 1
	note A#, 1
	note B_, 2
	note A#, 2
	note G#, 2
	note A#, 2
	note B_, 4
	octave 4
	note C#, 4
	octave 3
	note B_, 4
	note A#, 16
	note F#, 16
	note D#, 6
	note A#, 4
	note G#, 1
	note A#, 1
	note B_, 2
	note A#, 2
	note G#, 2
	note A#, 2
	note B_, 4
	octave 4
	note C#, 4
	note D_, 4
	octave 3
	note A#, 16
	note F_, 16
	note D#, 6
	note A#, 4
	note G#, 1
	note A#, 1
	note B_, 2
	note A#, 2
	note G#, 2
	note A#, 2
	note B_, 4
	octave 4
	note C#, 4
	octave 3
	note B_, 4
	note A#, 16
	note F#, 16
	note D#, 6
	note A#, 4
	note G#, 1
	note A#, 1
	note B_, 2
	note A#, 2
	note G#, 2
	note A#, 2
	note B_, 4
	octave 4
	note C#, 4
	note D_, 4
	note D#, 16
	octave 3
	note D#, 16
	octave 4
	volume_envelope 12, 2
	note D#, 2
	note D#, 2
	octave 3
	volume_envelope 12, 7
	note A#, 8
	rest 2
	volume_envelope 12, 2
	note E_, 2
	note D#, 2
	note D#, 2
	octave 2
	volume_envelope 12, 7
	note A#, 12
	octave 3
	note D#, 8
	volume_envelope 12, 2
	note C#, 4
	octave 2
	note B_, 2
	note B_, 1
	note A#, 1
	volume_envelope 12, 7
	note B_, 16
	octave 4
	volume_envelope 12, 2
	note D#, 2
	note D#, 2
	octave 3
	volume_envelope 12, 7
	note A#, 8
	rest 2
	volume_envelope 12, 2
	note E_, 2
	note D#, 2
	note D#, 2
	octave 2
	volume_envelope 12, 7
	note A#, 12
	octave 3
	note C#, 8
	octave 2
	volume_envelope 12, 2
	note F#, 3
	note G#, 3
	note A#, 2
	volume_envelope 12, 7
	note G#, 8
	octave 3
	volume_envelope 12, 2
	note D_, 1
	note D#, 1
	note E_, 1
	note F#, 1
	note G#, 1
	note A#, 1
	note B_, 1
	octave 4
	note D_, 1
	note D#, 2
	octave 3
	note D#, 2
	note D#, 2
	octave 4
	note D#, 2
	octave 3
	note D#, 2
	note D#, 2
	octave 4
	note D#, 2
	octave 3
	note D#, 2
	volume_envelope 12, 7
	note F#, 8
	note E_, 8
	sound_jump Music_WildBattlePrism_branch_19f167

Music_WildBattlePrism_Ch3:
	note_type 12, 1, 4
	octave 4
	note D#, 2
	note D#, 1
	note D#, 1
	note E_, 2
	note E_, 1
	note D#, 1
	note F_, 2
	note F_, 1
	note E_, 1
	note F#, 2
	note F#, 1
	note F_, 1
	note G_, 2
	note G_, 1
	note F#, 1
	note G#, 2
	note G#, 1
	note G_, 1
	note A_, 2
	note A_, 1
	note G#, 1
	note A#, 4
	octave 3
	note A#, 2
	octave 4
	note D#, 2
	octave 3
	note A#, 2
	octave 4
	note D#, 2
	octave 3
	note A#, 2
	octave 4
	note D#, 2
	note F#, 2
	note D#, 2
	octave 3
	note B_, 2
	octave 4
	note E_, 2
	octave 3
	note B_, 2
	octave 4
	note E_, 2
	octave 3
	note B_, 2
	octave 4
	note E_, 2
	note G_, 2
	note E_, 2
	octave 3
	note A#, 2
	octave 4
	note D#, 2
	octave 3
	note A#, 2
	octave 4
	note D#, 2
	octave 3
	note A#, 2
	octave 4
	note D#, 2
	note F#, 2
	note D#, 2
	octave 3
	note F_, 2
	note A#, 2
	note F_, 2
	note A#, 2
	note F_, 2
	note A#, 2
	octave 4
	note D_, 2
	octave 3
	note A#, 2
	note A#, 2
	octave 4
	note D#, 2
	octave 3
	note A#, 2
	octave 4
	note D#, 2
	octave 3
	note A#, 2
	octave 4
	note D#, 2
	note F#, 2
	note D#, 2
	octave 3
	note B_, 2
	octave 4
	note E_, 2
	octave 3
	note B_, 2
	octave 4
	note E_, 2
	octave 3
	note B_, 2
	octave 4
	note E_, 2
	note G_, 2
	note E_, 2
	octave 3
	note A#, 2
	octave 4
	note D#, 2
	octave 3
	note A#, 2
	octave 4
	note D#, 2
	octave 3
	note A#, 2
	octave 4
	note D#, 2
	note F#, 2
	note D#, 2
	note D#, 16
Music_WildBattlePrism_branch_19f3ba:
	octave 3
	note A#, 2
	octave 4
	note D#, 2
	sound_loop 8, Music_WildBattlePrism_branch_19f3ba
Music_WildBattlePrism_branch_19f3c2:
	note C#, 2
	note F#, 2
	sound_loop 8, Music_WildBattlePrism_branch_19f3c2
Music_WildBattlePrism_branch_19f3c8:
	octave 3
	note A#, 2
	octave 4
	note D#, 2
	sound_loop 8, Music_WildBattlePrism_branch_19f3c8
	octave 3
Music_WildBattlePrism_branch_19f3d1:
	note F_, 2
	note A#, 2
	sound_loop 8, Music_WildBattlePrism_branch_19f3d1
Music_WildBattlePrism_branch_19f3d7:
	octave 3
	note A#, 2
	note D#, 2
	sound_loop 8, Music_WildBattlePrism_branch_19f3d7
Music_WildBattlePrism_branch_19f3df:
	note C#, 2
	note F#, 2
	sound_loop 8, Music_WildBattlePrism_branch_19f3df
Music_WildBattlePrism_branch_19f3e5:
	octave 3
	note A#, 2
	octave 4
	note D#, 2
	sound_loop 8, Music_WildBattlePrism_branch_19f3e5
Music_WildBattlePrism_branch_19f3ed:
	note D#, 2
	note G#, 2
	sound_loop 8, Music_WildBattlePrism_branch_19f3ed
	octave 3
	note A#, 2
	octave 4
	note D#, 2
	octave 3
	note A#, 2
	octave 4
	note D#, 2
	note F#, 2
	note D#, 2
	octave 3
	note A#, 2
	octave 4
	note D#, 2
	octave 3
	note A#, 2
	octave 4
	note D#, 2
	octave 3
	note A#, 2
	octave 4
	note D#, 2
	note F#, 2
	note A#, 2
	note F#, 2
	note D#, 2
	note D#, 2
	note G#, 2
	note D#, 2
	note G#, 2
	note B_, 2
	note G#, 2
	note D#, 2
	note G#, 2
	note D#, 2
	note G#, 2
	note D#, 2
	note G#, 2
	note B_, 2
	octave 5
	note D#, 2
	octave 4
	note B_, 2
	note G#, 2
	octave 3
	note A#, 2
	octave 4
	note D#, 2
	octave 3
	note A#, 2
	octave 4
	note D#, 2
	note F#, 2
	note D#, 2
	octave 3
	note A#, 2
	octave 4
	note D#, 2
	octave 3
	note A#, 2
	octave 4
	note D#, 2
	octave 3
	note A#, 2
	octave 4
	note D#, 2
	note F#, 2
	note A#, 2
	note F#, 2
	note D#, 2
	octave 3
	note C#, 2
	note F#, 2
	note C#, 2
	note F#, 2
	note A#, 2
	note F#, 2
	note C#, 2
	note F#, 2
	note C#, 2
	note F#, 2
	note C#, 2
	note F#, 2
	note A#, 2
	octave 4
	note C#, 2
	octave 3
	note A#, 2
	note F#, 2
	octave 4
	note D#, 4
	note D#, 6
	octave 3
	note A#, 2
	note B_, 2
	octave 4
	note D_, 2
	note D#, 16
	sound_jump Music_WildBattlePrism_branch_19f3ba
