Music_EternaForestDPPt:
	channel_count 4
	channel 1, Music_EternaForestDPPt_Ch1
	channel 2, Music_EternaForestDPPt_Ch2
	channel 3, Music_EternaForestDPPt_Ch3
	channel 4, Music_EternaForestDPPt_Ch4

Music_EternaForestDPPt_Ch1:
	tempo 136
	volume 7, 7
Music_EternaForestDPPt_Ch1_loop:
	note_type 12, 8, 2
	duty_cycle 0
	rest 1
	octave 6
	note C_, 5
	volume_envelope 7, 2
	note C_, 6
	volume_envelope 6, 2
	note C_, 6
	volume_envelope 5, 2
	note C_, 6
	volume_envelope 4, 2
	note C_, 9
	volume_envelope 8, 2
	note C_, 5
	volume_envelope 7, 2
	note C_, 6
	volume_envelope 6, 2
	note C_, 6
	volume_envelope 5, 2
	note C_, 6
	volume_envelope 4, 2
	note C_, 7
	volume_envelope 8, 2
	octave 5
	note C_, 5
	volume_envelope 7, 2
	note C_, 6
	volume_envelope 6, 2
	note C_, 6
	volume_envelope 5, 2
	note C_, 6
	volume_envelope 4, 2
	note C_, 9
	volume_envelope 8, 2
	note G_, 5
	volume_envelope 7, 2
	note G_, 6
	volume_envelope 6, 2
	note G_, 6
	volume_envelope 5, 2
	note G_, 6
	volume_envelope 4, 2
	note G_, 9
	volume_envelope 8, 2
	octave 4
	note G_, 5
	volume_envelope 7, 2
	note G_, 6
	volume_envelope 6, 2
	note G_, 6
	volume_envelope 8, 2
	note D#, 6
	volume_envelope 7, 2
	note D#, 4
	volume_envelope 8, 2
	note C#, 16
	duty_cycle 1
	rest 16
	rest 12
	octave 6
	note C#, 2
	octave 5
	note G_, 2
	octave 6
	note C#, 12
	octave 5
	note G_, 2
	note C#, 2
	note G_, 14
	note C_, 2
	note D#, 10
	octave 4
	note C_, 4
	octave 3
	note A#, 2
	octave 4
	note C_, 2
	note G_, 8
	note C_, 4
	octave 3
	note G_, 2
	octave 4
	note D#, 6
	octave 3
	note G#, 2
	octave 4
	note D#, 6
	octave 3
	note A#, 2
	octave 4
	note D#, 16
	rest 16
	rest 2
	octave 6
	note D#, 2
	octave 5
	note G#, 2
	note_type 15, 8, 2
	octave 6
	note C_, 16
	note_type 12, 8, 2
	note D#, 2
	octave 5
	note G_, 2
	note_type 15, 8, 2
	note A#, 16
	note_type 12, 8, 2
	octave 6
	note D#, 2
	octave 5
	note G#, 2
	note D#, 4
	octave 4
	note C_, 2
	octave 5
	note C_, 2
	octave 3
	note A#, 2
	octave 4
	note C_, 2
	note G_, 8
	note C_, 2
	octave 5
	note C_, 2
	octave 3
	note G_, 2
	octave 4
	note G_, 2
	octave 5
	note G_, 4
	octave 3
	note G#, 2
	octave 4
	note G#, 2
	octave 5
	note G#, 4
	octave 4
	note D#, 2
	octave 5
	note D#, 2
	octave 6
	note D#, 8
	octave 4
	note G#, 2
	octave 5
	note C#, 2
	note G#, 2
	octave 4
	note G#, 2
	octave 6
	note C#, 2
	note G#, 2
	note G_, 2
	note G#, 2
	note D#, 2
	octave 4
	note G#, 4
	octave 5
	note D#, 2
	note G#, 8
	octave 4
	note G#, 2
	octave 5
	note C_, 2
	note G#, 2
	octave 4
	note G#, 2
	octave 6
	note C_, 2
	note G#, 2
	note G_, 2
	note G#, 2
	note D#, 2
	octave 4
	note G#, 4
	octave 5
	note D#, 2
	note G#, 6
	octave 6
	note C_, 4
	octave 5
	note G#, 4
	note A#, 2
	note D#, 6
	note C_, 4
	octave 4
	note G#, 4
	note A#, 2
	octave 5
	note D#, 2
	note F_, 16
	rest 6
	note G_, 4
	note G#, 2
	note G_, 4
	note D#, 16
	rest 6
	note A#, 4
	octave 6
	note C_, 2
	octave 5
	note A#, 4
	note F_, 16
	rest 16
	rest 2
	octave 6
	note D#, 2
	note C#, 2
	octave 5
	note G#, 2
	note F_, 2
	note C#, 2
	note C_, 2
	octave 4
	note G#, 2
	note C#, 2
	octave 6
	note E_, 2
	note C#, 2
	octave 5
	note A#, 2
	note G_, 2
	note E_, 2
	note C#, 2
	octave 4
	note A#, 2
	note E_, 3
	duty_cycle 0
	octave 6
	note C_, 5
	volume_envelope 7, 2
	note C_, 6
	volume_envelope 6, 2
	note C_, 6
	volume_envelope 5, 2
	note C_, 6
	volume_envelope 4, 2
	note C_, 9
	volume_envelope 8, 2
	note C_, 5
	volume_envelope 7, 2
	note C_, 6
	volume_envelope 6, 2
	note C_, 6
	volume_envelope 5, 2
	note C_, 6
	volume_envelope 4, 2
	note C_, 9
	volume_envelope 8, 2
	note C_, 5
	volume_envelope 7, 2
	note C_, 6
	volume_envelope 6, 2
	note C_, 6
	volume_envelope 5, 2
	note C_, 6
	volume_envelope 4, 2
	note C_, 9
	volume_envelope 8, 2
	note C_, 5
	volume_envelope 7, 2
	note C_, 6
	volume_envelope 6, 2
	note C_, 6
	volume_envelope 5, 2
	note C_, 6
	volume_envelope 4, 2
	note C_, 8
	octave 5
	sound_jump Music_EternaForestDPPt_Ch1_loop

Music_EternaForestDPPt_Ch2:
Music_EternaForestDPPt_Ch2_loop:
	note_type 12, 9, 2
	duty_cycle 0
	octave 5
	note D#, 6
	volume_envelope 8, 2
	note D#, 6
	volume_envelope 7, 2
	note D#, 6
	volume_envelope 6, 2
	note D#, 6
	volume_envelope 5, 2
	note D#, 8
	volume_envelope 9, 2
	note F_, 6
	volume_envelope 8, 2
	note F_, 6
	volume_envelope 7, 2
	note F_, 6
	volume_envelope 6, 2
	note F_, 6
	volume_envelope 5, 2
	note F_, 6
	volume_envelope 9, 2
	octave 4
	note F_, 6
	volume_envelope 8, 2
	note F_, 6
	volume_envelope 7, 2
	note F_, 6
	volume_envelope 6, 2
	note F_, 6
	volume_envelope 5, 2
	note F_, 8
	volume_envelope 9, 2
	octave 5
	note C_, 6
	volume_envelope 8, 2
	note C_, 6
	volume_envelope 7, 2
	note C_, 6
	volume_envelope 6, 2
	note C_, 6
	volume_envelope 5, 2
	note C_, 8
	volume_envelope 9, 2
	octave 4
	note C_, 6
	volume_envelope 8, 2
	note C_, 6
	volume_envelope 7, 2
	note C_, 6
	octave 3
	volume_envelope 6, 2
	note G#, 6
	volume_envelope 5, 2
	note G#, 4
	volume_envelope 9, 2
	note G_, 6
	volume_envelope 11, 6
	duty_cycle 2
	octave 2
	note C#, 2
	rest 4
	octave 1
	note C#, 2
	rest 16
	rest 8
	octave 2
	note C#, 2
	rest 4
	octave 1
	note C#, 2
	rest 16
	rest 8
	note G#, 2
	rest 4
	note G#, 2
	rest 16
	rest 16
	rest 8
	note F_, 2
	rest 6
	note D#, 2
	rest 6
	octave 2
	note C#, 2
	rest 4
	octave 1
	note C#, 2
	rest 16
	rest 8
	octave 2
	note C#, 2
	rest 4
	octave 1
	note C#, 2
	rest 16
	rest 8
	note G#, 2
	rest 4
	note G#, 2
	rest 16
	rest 16
	rest 8
	note F_, 2
	rest 6
	note D#, 2
	rest 6
	note A#, 2
	rest 4
	note A#, 2
	rest 2
	note A#, 2
	rest 1
	note A#, 2
	rest 1
	octave 2
	note C_, 2
	rest 4
	note C_, 2
	rest 2
	note C_, 2
	rest 1
	note C_, 2
	rest 1
	octave 1
	note F_, 2
	rest 4
	note F_, 2
	rest 2
	note F_, 2
	rest 1
	note F_, 2
	rest 1
	note D#, 2
	rest 4
	note D#, 2
	rest 2
	note D#, 2
	rest 1
	note D#, 2
	rest 1
	note A#, 2
	rest 6
	octave 2
	note C_, 2
	octave 1
	rest 6
	note A#, 2
	rest 2
	octave 2
	note C_, 2
	rest 2
	octave 1
	note C#, 2
	note D#, 2
	rest 2
	note C#, 16
	rest 16
	rest 2
	octave 2
	note C_, 16
	rest 16
	rest 4
	octave 1
	note A#, 4
	octave 2
	note C#, 4
	octave 1
	note A#, 4
	octave 2
	note C_, 4
	note D#, 4
	note G_, 4
	note A#, 4
	octave 3
	note C#, 6
	octave 2
	note C#, 6
	octave 3
	note C#, 4
	octave 4
	note C#, 6
	octave 3
	note C#, 10
	volume_envelope 9, 2
	duty_cycle 0
	octave 5
	note C#, 6
	volume_envelope 8, 2
	note C#, 6
	volume_envelope 7, 2
	note C#, 6
	volume_envelope 6, 2
	note C#, 6
	volume_envelope 5, 2
	note C#, 8
	volume_envelope 9, 2
	octave 4
	note G#, 6
	volume_envelope 8, 2
	note G#, 6
	volume_envelope 7, 2
	note G#, 6
	volume_envelope 6, 2
	note G#, 6
	volume_envelope 5, 2
	note G#, 8
	volume_envelope 9, 2
	octave 5
	note C#, 6
	volume_envelope 8, 2
	note C#, 6
	volume_envelope 7, 2
	note C#, 6
	volume_envelope 6, 2
	note C#, 6
	volume_envelope 5, 2
	note C#, 8
	volume_envelope 9, 2
	octave 4
	note G#, 6
	volume_envelope 8, 2
	note G#, 6
	volume_envelope 7, 2
	note G#, 6
	volume_envelope 6, 2
	note G#, 6
	volume_envelope 5, 2
	note G#, 8
	sound_jump Music_EternaForestDPPt_Ch2_loop

Music_EternaForestDPPt_Ch3:
Music_EternaForestDPPt_Ch3_loop:
	note_type 12, 1, 2
	vibrato 16, 1, 4
	rest 16
	rest 16
	rest 16
	octave 6
	note C_, 2
	note C#, 2
	rest 2
	note C_, 2
	octave 5
	note A#, 2
	octave 6
	note C_, 2
	rest 2
	note C#, 2
	note C_, 2
	octave 5
	rest 2
	note G_, 2
	note G#, 2
	rest 2
	note A#, 2
	rest 2
	note G#, 2
	note G_, 2
	note G#, 2
	rest 2
	note A#, 2
	note G#, 2
	rest 2
	note F_, 2
	note G#, 2
	note G_, 2
	note G#, 2
	rest 2
	note G_, 2
	note D#, 2
	rest 2
	note C_, 2
	rest 16
	rest 16
	rest 16
	rest 16
	rest 2
	octave 6
	note C_, 2
	note C#, 2
	rest 2
	note C_, 2
	octave 5
	note A#, 2
	octave 6
	note C_, 2
	rest 2
	note C#, 2
	note C_, 2
	octave 5
	rest 2
	note G_, 2
	note G#, 2
	rest 2
	note A#, 2
	rest 2
	note G#, 2
	note G_, 2
	note G#, 2
	rest 2
	note A#, 2
	note G#, 2
	rest 2
	note F_, 2
	note G#, 2
	note G_, 2
	note G#, 2
	rest 2
	note G_, 2
	note D#, 2
	rest 2
	note C_, 2
	rest 16
	rest 16
	rest 16
	rest 14
	note F_, 2
	note G_, 2
	note G#, 2
	octave 6
	note C_, 2
	octave 5
	rest 2
	note A#, 2
	octave 6
	note D#, 2
	note C#, 2
	rest 2
	note C_, 2
	octave 5
	note G_, 2
	rest 2
	note G#, 2
	note A#, 2
	rest 2
	octave 6
	note C_, 2
	rest 2
	note C#, 2
	note C_, 2
	note C#, 2
	rest 2
	note D#, 2
	rest 2
	note A#, 2
	note G_, 2
	note G#, 2
	note A#, 2
	note G#, 2
	rest 2
	note D#, 2
	rest 2
	note C_, 2
	rest 16
	rest 16
	rest 16
	rest 4
	octave 4
	note G#, 8
	octave 5
	note C#, 4
	note C_, 8
	note D#, 4
	note A#, 4
	note G#, 12
	note C_, 4
	note D#, 8
	note G#, 4
	note A#, 4
	note G#, 8
	note F_, 4
	note G_, 4
	note G#, 4
	note A#, 4
	octave 6
	note C_, 4
	note C#, 2
	note D#, 4
	note F_, 2
	note_type 8, 1, 2
	note G_, 4
	note G#, 4
	note G_, 4
	note D#, 4
	note C_, 4
	note F_, 4
	note_type 12, 1, 2
	octave 5
	note G#, 16
	note_type 8, 1, 2
	note A#, 4
	octave 6
	note C_, 4
	octave 5
	note A#, 4
	note G#, 4
	note F_, 4
	note A#, 4
	note_type 12, 1, 2
	note D#, 12
	note A#, 4
	note G#, 8
	note F_, 4
	note A#, 8
	note G#, 4
	octave 6
	note C_, 4
	octave 5
	note A#, 4
	octave 6
	note D#, 16
	note C#, 16
	note C#, 8
	octave 5
	note C#, 2
	octave 6
	note G_, 2
	note G_, 2
	octave 5
	note C#, 2
	octave 6
	note A#, 2
	octave 7
	note C_, 4
	rest 16
	rest 2
	octave 4
	note G#, 2
	octave 6
	note D#, 2
	note D#, 2
	octave 4
	note G#, 2
	octave 6
	note A#, 2
	octave 7
	note C_, 4
	rest 16
	rest 2
	octave 5
	note C#, 2
	octave 6
	note G_, 2
	note G_, 2
	octave 5
	note C#, 2
	octave 6
	note A#, 2
	octave 7
	note C_, 2
	note D#, 2
	rest 16
	rest 2
	octave 4
	note G#, 2
	octave 6
	note D#, 2
	note D#, 2
	octave 4
	note G#, 2
	octave 6
	note A#, 2
	octave 7
	note C_, 2
	note D#, 2
	rest 10
	sound_jump Music_EternaForestDPPt_Ch3_loop

Music_EternaForestDPPt_Ch4:
	toggle_noise 4
Music_EternaForestDPPt_Ch4_loop:
	drum_speed 12
	rest 16
	rest 16
	rest 16
	rest 16
	rest 16
	rest 16
	rest 16
	rest 16
	rest 16
	rest 16
	drum_note 8, 2
	drum_note 10, 2
	drum_note 10, 2
	drum_note 10, 2
	drum_note 8, 2
	drum_note 10, 2
	drum_note 10, 2
	drum_note 10, 2
	drum_note 8, 2
	drum_note 10, 2
	drum_note 10, 2
	drum_note 10, 2
	drum_note 8, 2
	drum_note 10, 2
	drum_note 10, 2
	drum_note 10, 2
	drum_note 8, 2
	drum_note 10, 2
	drum_note 10, 2
	drum_note 10, 2
	drum_note 8, 2
	drum_note 10, 2
	drum_note 10, 2
	drum_note 10, 2
	drum_note 8, 2
	drum_note 10, 2
	drum_note 10, 2
	drum_note 10, 2
	drum_note 8, 2
	drum_note 10, 2
	drum_note 10, 2
	drum_note 10, 2
	drum_note 8, 2
	drum_note 10, 2
	drum_note 10, 2
	drum_note 10, 2
	drum_note 8, 2
	drum_note 10, 2
	drum_note 10, 2
	drum_note 10, 2
	drum_note 8, 2
	drum_note 10, 2
	drum_note 10, 2
	drum_note 10, 2
	drum_note 8, 2
	drum_note 10, 2
	drum_note 10, 2
	drum_note 10, 2
	drum_note 8, 2
	drum_note 10, 2
	drum_note 10, 2
	drum_note 10, 2
	drum_note 8, 2
	drum_note 10, 2
	drum_note 10, 2
	drum_note 10, 2
	drum_note 8, 2
	drum_note 10, 2
	drum_note 10, 2
	drum_note 10, 2
	drum_note 8, 2
	drum_note 10, 2
	drum_note 10, 2
	drum_note 10, 2
	drum_note 8, 2
	drum_note 10, 2
	drum_note 10, 2
	drum_note 10, 2
	drum_note 8, 2
	drum_note 10, 2
	drum_note 10, 2
	drum_note 10, 2
	drum_note 8, 2
	drum_note 10, 2
	drum_note 10, 2
	drum_note 10, 2
	drum_note 8, 2
	drum_note 10, 2
	drum_note 10, 2
	drum_note 10, 2
	drum_note 8, 2
	drum_note 10, 2
	drum_note 10, 2
	drum_note 10, 2
	drum_note 8, 2
	drum_note 10, 2
	drum_note 10, 2
	drum_note 10, 2
	drum_note 8, 2
	drum_note 10, 2
	drum_note 10, 2
	drum_note 10, 2
	drum_note 8, 2
	drum_note 10, 2
	drum_note 10, 2
	drum_note 10, 2
	drum_note 8, 2
	drum_note 10, 2
	drum_note 10, 2
	drum_note 10, 2
	drum_note 8, 2
	drum_note 10, 2
	drum_note 10, 2
	drum_note 10, 2
	drum_note 8, 2
	drum_note 10, 2
	drum_note 10, 2
	drum_note 10, 2
	drum_note 8, 2
	drum_note 10, 2
	drum_note 10, 2
	drum_note 10, 2
	drum_note 8, 2
	drum_note 10, 2
	drum_note 10, 2
	drum_note 10, 2
	drum_note 8, 2
	drum_note 10, 2
	drum_note 10, 2
	drum_note 10, 2
	drum_note 8, 2
	drum_note 10, 2
	drum_note 10, 2
	drum_note 10, 2
	drum_note 8, 2
	drum_note 10, 2
	drum_note 10, 2
	drum_note 10, 2
	drum_note 5, 2
	drum_note 8, 1
	drum_note 5, 1
	drum_note 2, 2
	drum_note 5, 2
	drum_note 8, 2
	drum_note 5, 2
	drum_note 2, 1
	drum_note 5, 1
	drum_note 8, 2
	drum_note 5, 2
	drum_note 8, 1
	drum_note 5, 1
	drum_note 2, 2
	drum_note 5, 2
	drum_note 8, 2
	drum_note 5, 2
	drum_note 2, 1
	drum_note 5, 1
	drum_note 8, 2
	drum_note 5, 2
	drum_note 8, 1
	drum_note 5, 1
	drum_note 2, 2
	drum_note 5, 2
	drum_note 8, 2
	drum_note 5, 2
	drum_note 2, 1
	drum_note 5, 1
	drum_note 8, 2
	drum_note 5, 2
	drum_note 8, 1
	drum_note 5, 1
	drum_note 2, 2
	drum_note 5, 2
	drum_note 8, 2
	drum_note 5, 2
	drum_note 2, 1
	drum_note 5, 1
	drum_note 8, 2
	drum_note 5, 2
	drum_note 5, 2
	drum_note 2, 1
	drum_note 5, 2
	drum_note 2, 1
	drum_note 5, 2
	drum_note 5, 2
	drum_note 2, 1
	drum_note 5, 2
	drum_note 2, 1
	drum_note 5, 2
	drum_note 5, 2
	drum_note 2, 1
	drum_note 2, 2
	drum_note 2, 1
	drum_note 2, 2
	drum_note 2, 2
	drum_note 2, 1
	drum_note 5, 2
	drum_note 2, 1
	drum_note 8, 16
	rest 16
	rest 16
	rest 16
	rest 16
	rest 16
	rest 16
	rest 16
	rest 16
	rest 16
	rest 16
	rest 16
	rest 16
	rest 16
	rest 16
	rest 16
	sound_jump Music_EternaForestDPPt_Ch4_loop
