Music_CanalaveCityDPPt:
	channel_count 4
	channel 1, Music_CanalaveCityDPPt_Ch1
	channel 2, Music_CanalaveCityDPPt_Ch2
	channel 3, Music_CanalaveCityDPPt_Ch3
	channel 4, Music_CanalaveCityDPPt_Ch4

Music_CanalaveCityDPPt_Ch1:
	tempo 206
	volume 7, 7
	note_type 12, 10, 7
	duty_cycle 1
	pitch_offset 2
	octave 1
	note F_, 2
Music_CanalaveCityDPPt_Ch1_loop:
	octave 1
	note A#, 2
	octave 2
	note F_, 2
	note A#, 2
	octave 3
	note C_, 2
	note D_, 2
	octave 2
	note A#, 2
	octave 3
	note C_, 2
	octave 2
	note F_, 2
	octave 1
	note A#, 2
	octave 2
	note F_, 2
	note A#, 2
	octave 3
	note C_, 2
	note D_, 2
	octave 2
	note A#, 2
	octave 3
	note C_, 2
	octave 2
	note F_, 1
	note_type 6, 10, 7
	octave 3
	note F_, 1
	note A#, 1
	note_type 13, 10, 7
	note A#, 12
	note_type 6, 10, 7
	note A_, 1
	octave 4
	note D_, 1
	note D_, 16
	rest 16
	rest 2
	octave 3
	note G#, 1
	octave 4
	note C_, 1
	note_type 15, 10, 7
	note C_, 12
	octave 3
	note_type 6, 10, 7
	note G_, 1
	note A#, 1
	octave 4
	note D_, 8
	octave 3
	note A#, 8
	note G_, 8
	note A#, 6
	note F#, 1
	note A#, 1
	note A#, 12
	octave 4
	note C_, 12
	octave 3
	note A#, 6
	note D_, 1
	note F_, 1
	note A#, 9
	note A#, 1
	octave 4
	note D_, 1
	note F_, 16
	rest 3
	octave 3
	note C_, 1
	note E_, 1
	note G_, 9
	note G_, 1
	octave 4
	note C_, 1
	note E_, 13
	octave 3
	note G_, 8
	note G_, 4
	note F_, 4
	note E_, 4
	note_type 12, 10, 7
	note F_, 9
	note_type 6, 10, 7
	note F_, 1
	note A#, 1
	note_type 13, 10, 7
	note A#, 12
	note_type 6, 10, 7
	note A_, 1
	octave 4
	note D_, 1
	note D_, 16
	rest 16
	rest 2
	octave 3
	note G#, 1
	octave 4
	note C_, 1
	note_type 15, 10, 7
	note C_, 12
	octave 3
	note_type 6, 10, 7
	note G_, 1
	note A#, 1
	note_type 15, 10, 7
	note A#, 12
	note_type 6, 10, 7
	note F#, 1
	note A#, 1
	note A#, 4
	note F#, 4
	note A#, 4
	octave 4
	note C_, 4
	note_type 8, 10, 7
	note D#, 4
	note C_, 4
	octave 3
	note_type 10, 10, 7
	note A#, 2
	note_type 6, 10, 7
	note F_, 1
	note A#, 1
	note A#, 8
	note F_, 4
	octave 4
	note D#, 8
	note F_, 10
	octave 3
	note E_, 1
	note G_, 1
	note G_, 12
	note E_, 4
	note_type 8, 10, 7
	octave 4
	note C_, 4
	note E_, 4
	octave 3
	note A#, 4
	note G_, 9
	note_type 12, 10, 7
	note F_, 1
	note E_, 1
	note F_, 8
	note F#, 10
	note G#, 2
	note F_, 1
	note D#, 2
	note F_, 14
	octave 2
	note F_, 2
	note A#, 1
	octave 3
	note C#, 10
	note F_, 1
	note F#, 1
	note F_, 1
	note D#, 2
	note C_, 1
	note C#, 1
	note D#, 2
	note E_, 1
	note F_, 2
	note F_, 7
	note F_, 2
	note F#, 1
	note F#, 10
	octave 4
	note C_, 1
	note C#, 1
	note C_, 1
	octave 3
	note A#, 1
	note G#, 1
	octave 4
	note C_, 1
	octave 3
	note A#, 3
	note G#, 3
	note G#, 1
	note G_, 3
	note D#, 2
	note D#, 1
	note F#, 3
	note A#, 3
	note A#, 3
	note A_, 1
	note A#, 1
	note A#, 3
	note F#, 5
	note G#, 3
	note G#, 3
	note G_, 1
	note F_, 1
	note F_, 2
	note F_, 2
	note G_, 1
	note G#, 3
	note A#, 1
	note A#, 2
	note F#, 3
	note G#, 1
	note A#, 1
	octave 4
	note C_, 6
	octave 3
	note G#, 1
	note D#, 1
	volume_envelope 10, 2
	note G#, 2
	volume_envelope 10, 8
	note F_, 14
	note F_, 8
	volume_envelope 10, 7
	note F_, 8
	sound_jump Music_CanalaveCityDPPt_Ch1_loop

Music_CanalaveCityDPPt_Ch2:
	note_type 12, 11, 7
	duty_cycle 1
	pitch_offset 1
	octave 3
	rest 2
Music_CanalaveCityDPPt_Ch2_loop:
	rest 16
	rest 10
	note F_, 2
	note A#, 2
	octave 4
	note C_, 2
	note D_, 4
	note C_, 2
	note D_, 4
	note D#, 4
	note F_, 14
	note D_, 2
	note D#, 2
	note F_, 10
	note F_, 2
	note G_, 2
	note D_, 2
	note F_, 4
	note D#, 4
	note D_, 4
	note F_, 4
	note D#, 6
	note F_, 6
	note D#, 4
	note D_, 6
	note A#, 10
	note C_, 6
	note A#, 6
	note C_, 4
	octave 3
	note A#, 2
	note A_, 2
	note G_, 2
	note A_, 4
	note F_, 2
	octave 4
	note F_, 2
	note D#, 2
	note D_, 4
	note C_, 2
	note D_, 4
	note D#, 4
	note F_, 14
	note D_, 2
	note D#, 2
	note F_, 10
	note F_, 2
	note G_, 2
	note D_, 2
	note F_, 4
	note D#, 4
	note_type 8, 11, 7
	note D_, 4
	note F_, 4
	note D#, 4
	note D#, 3
	octave 3
	note A#, 3
	octave 4
	note D#, 3
	note F_, 3
	note F#, 4
	note F_, 4
	note D#, 4
	note D_, 6
	octave 3
	note A#, 3
	octave 4
	note A_, 6
	note A#, 9
	note C_, 9
	octave 3
	note G_, 3
	octave 4
	note A_, 4
	note A#, 4
	note G_, 4
	octave 3
	note A#, 9
	note_type 12, 11, 7
	note A_, 1
	note G_, 1
	note A_, 4
	note_type 6, 11, 7
	octave 2
	note A#, 1
	octave 3
	note C_, 1
	note C#, 1
	note D#, 1
	note F_, 1
	note F#, 1
	note G_, 1
	note G#, 1
	note_type 15, 11, 7
	note A#, 8
	note_type 12, 11, 7
	octave 4
	note C_, 2
	octave 3
	note G#, 1
	note F#, 2
	note G#, 14
	octave 2
	note G#, 2
	octave 3
	note C#, 1
	note F#, 10
	note G#, 1
	note A#, 1
	note G#, 1
	note F#, 2
	note D#, 1
	note F_, 1
	note F#, 2
	note G_, 1
	note G#, 2
	note B_, 7
	note G#, 2
	note A_, 1
	note A#, 10
	octave 4
	note D#, 1
	note F_, 1
	note D#, 1
	note C#, 1
	note C_, 1
	note D#, 1
	note C#, 12
	note C#, 1
	note C_, 1
	octave 3
	note A#, 1
	octave 4
	note C_, 1
	note C#, 12
	note C#, 1
	note C_, 1
	octave 3
	note A#, 1
	octave 4
	note C_, 1
	note C#, 7
	octave 3
	note G#, 1
	note G#, 6
	note G#, 1
	octave 4
	note C_, 1
	note C#, 6
	note C_, 1
	note C#, 1
	note D#, 6
	note C_, 1
	octave 3
	note G#, 1
	volume_envelope 11, 2
	octave 4
	note C_, 2
	octave 3
	volume_envelope 11, 8
	note A#, 14
	note A#, 8
	volume_envelope 11, 7
	note A#, 8
	sound_jump Music_CanalaveCityDPPt_Ch2_loop

Music_CanalaveCityDPPt_Ch3:
	note_type 12, 2, 5
	octave 4
	rest 2
Music_CanalaveCityDPPt_Ch3_loop:
	note_type 8, 2, 5
	octave 3
	note A#, 1
	octave 4
	note F_, 1
	note A#, 1
	octave 5
	note D_, 1
	octave 6
	note C_, 1
	octave 5
	note D_, 1
	octave 3
	note A#, 1
	octave 4
	note F_, 1
	note A#, 1
	octave 5
	note D_, 1
	octave 6
	note C_, 1
	octave 5
	note D_, 1
	octave 3
	note A#, 1
	octave 4
	note F_, 1
	note A#, 1
	octave 5
	note D_, 1
	octave 6
	note C_, 1
	octave 5
	note D_, 1
	octave 3
	note A#, 1
	octave 4
	note F_, 1
	note A#, 1
	octave 5
	note D_, 1
	octave 6
	note C_, 1
	octave 5
	note D_, 1
	octave 3
	note A#, 1
	octave 4
	note F_, 1
	note A#, 1
	octave 5
	note D_, 1
	octave 6
	note C_, 1
	octave 5
	note D_, 1
	octave 3
	note A#, 1
	octave 4
	note F_, 1
	note A#, 1
	octave 5
	note D_, 1
	octave 6
	note C_, 1
	octave 5
	note D_, 1
	octave 3
	note A#, 1
	octave 4
	note A#, 1
	octave 5
	note F_, 1
	octave 6
	note C_, 1
	note D_, 1
	octave 5
	note A#, 1
	note D_, 1
	note F_, 1
	note C_, 1
	octave 4
	note A#, 1
	octave 5
	note D_, 1
	octave 4
	note F_, 1
	note_type 12, 1, 0
	octave 2
	note A#, 16
	octave 3
	note D_, 16
	octave 2
	note G#, 16
	note G_, 16
	note F#, 16
	note F_, 16
	note E_, 16
	note F_, 14
	note F_, 1
	note D_, 1
	octave 1
	note A#, 6
	note A#, 1
	rest 1
	note A#, 8
	octave 2
	note D_, 6
	note D_, 1
	rest 1
	note D_, 8
	octave 1
	note G#, 6
	note G#, 2
	rest 2
	note G#, 2
	octave 2
	note D#, 2
	note C_, 2
	octave 1
	note G_, 6
	note G_, 1
	rest 1
	note_type 8, 1, 0
	octave 2
	note D#, 4
	octave 1
	note A#, 4
	octave 2
	note D#, 4
	octave 1
	note F#, 9
	note A#, 3
	octave 2
	note D#, 4
	note F_, 4
	note F#, 4
	note F_, 9
	octave 1
	note A#, 6
	note A#, 6
	note B_, 3
	octave 2
	note C_, 9
	note C_, 3
	note G_, 4
	note E_, 4
	note A#, 4
	note F_, 9
	note_type 12, 1, 0
	note F_, 1
	rest 1
	note F_, 4
	note D#, 4
	note F#, 1
	note F#, 1
	rest 4
	note F#, 1
	note F#, 1
	rest 2
	note F#, 2
	rest 1
	octave 3
	note F#, 1
	octave 2
	note F#, 2
	note G_, 1
	note G#, 1
	rest 1
	note F_, 4
	note G#, 1
	rest 1
	note G#, 1
	note C#, 1
	rest 1
	note G#, 1
	rest 1
	note C#, 2
	note D#, 1
	note D#, 1
	rest 1
	octave 1
	note A#, 2
	rest 1
	octave 2
	note D_, 1
	note D#, 1
	rest 2
	note G#, 2
	rest 1
	note G#, 1
	octave 1
	note G#, 2
	octave 2
	note C#, 1
	note C#, 1
	rest 4
	note C#, 1
	note C#, 1
	note D_, 1
	note D_, 1
	rest 1
	octave 1
	note G#, 3
	octave 2
	note F_, 2
	note F#, 1
	note F#, 1
	rest 1
	note C#, 2
	rest 1
	note F#, 1
	note F#, 1
	note F#, 1
	rest 1
	note D#, 2
	note A_, 1
	octave 3
	note C_, 1
	octave 2
	note F_, 2
	note A#, 3
	octave 3
	note C#, 3
	octave 2
	note G#, 1
	note D#, 3
	note G_, 1
	rest 1
	note G_, 1
	rest 1
	note D#, 2
	note D#, 1
	note D#, 1
	rest 1
	octave 1
	note A#, 3
	octave 2
	note D_, 1
	note D#, 1
	rest 8
	note F_, 1
	note F_, 1
	rest 1
	note C_, 3
	note E_, 1
	note F_, 1
	rest 8
	note F#, 1
	note F#, 1
	rest 1
	note C#, 3
	note F#, 1
	note G#, 1
	note D#, 6
	rest 2
	note_type 8, 2, 5
	octave 3
	note A#, 1
	octave 4
	note F_, 1
	note A#, 1
	octave 5
	note D_, 1
	octave 6
	note C_, 1
	octave 5
	note D_, 1
	octave 3
	note A#, 1
	octave 4
	note F_, 1
	note A#, 1
	octave 5
	note D_, 1
	octave 6
	note C_, 1
	octave 5
	note D_, 1
	octave 3
	note A#, 1
	octave 4
	note F_, 1
	note A#, 1
	octave 5
	note D_, 1
	octave 6
	note C_, 1
	octave 5
	note D_, 1
	octave 3
	note A#, 1
	octave 4
	note F_, 1
	note A#, 1
	octave 5
	note D_, 1
	octave 6
	note C_, 1
	octave 5
	note D_, 1
	octave 3
	note A#, 1
	octave 4
	note F_, 1
	note A#, 1
	octave 5
	note D_, 1
	octave 6
	note C_, 1
	octave 5
	note D_, 1
	octave 3
	note A#, 1
	octave 4
	note F_, 1
	note A#, 1
	octave 5
	note D_, 1
	octave 6
	note C_, 1
	octave 5
	note D_, 1
	octave 3
	note A#, 1
	octave 4
	note A#, 1
	octave 5
	note F_, 1
	octave 6
	note C_, 1
	note D_, 1
	octave 5
	note A#, 1
	note D_, 1
	note F_, 1
	note C_, 1
	octave 4
	note A#, 1
	octave 5
	note D_, 1
	octave 4
	note F_, 1
	sound_jump Music_CanalaveCityDPPt_Ch3_loop

Music_CanalaveCityDPPt_Ch4:
	toggle_noise 3
	drum_speed 12
	rest 2
Music_CanalaveCityDPPt_Ch4_loop:
	rest 16
	rest 16
	rest 16
	rest 16
	rest 16
	rest 16
	rest 16
	rest 16
	rest 16
	rest 16
	drum_note 12, 6
	drum_note 12, 2
	drum_note 12, 4
	drum_note 2, 4
	drum_note 12, 6
	drum_note 12, 2
	drum_note 12, 4
	drum_note 2, 4
	drum_note 12, 6
	drum_note 12, 4
	drum_note 12, 2
	drum_note 2, 4
	drum_note 12, 6
	drum_note 12, 2
	drum_speed 8
	drum_note 2, 4
	drum_note 12, 4
	drum_note 12, 4
	drum_note 12, 9
	drum_note 12, 3
	drum_note 12, 4
	drum_note 12, 8
	drum_note 12, 9
	drum_note 12, 6
	drum_note 12, 3
	drum_note 2, 6
	drum_note 12, 9
	drum_note 12, 6
	drum_note 12, 3
	drum_note 2, 6
	drum_note 12, 9
	drum_note 12, 3
	drum_note 12, 6
	drum_note 2, 6
	drum_speed 12
	drum_note 12, 1
	drum_note 12, 3
	drum_note 2, 2
	drum_note 12, 1
	drum_note 12, 3
	drum_note 12, 2
	drum_note 12, 1
	drum_note 2, 2
	drum_note 2, 1
	drum_note 12, 1
	drum_note 12, 3
	drum_note 2, 2
	drum_note 12, 1
	drum_note 2, 1
	drum_note 2, 1
	drum_note 12, 1
	drum_note 12, 2
	drum_note 2, 1
	drum_note 2, 1
	drum_note 12, 2
	drum_note 12, 1
	drum_note 12, 2
	drum_note 12, 1
	drum_note 2, 2
	drum_note 12, 1
	drum_note 12, 3
	drum_note 12, 2
	drum_note 2, 4
	drum_note 12, 1
	drum_note 12, 2
	drum_note 12, 1
	drum_note 2, 2
	drum_note 12, 1
	drum_note 12, 2
	drum_note 12, 2
	drum_note 12, 1
	drum_note 2, 2
	drum_note 12, 2
	drum_note 12, 1
	drum_note 12, 2
	drum_note 2, 3
	drum_note 12, 1
	drum_note 12, 1
	drum_note 12, 2
	drum_note 12, 2
	drum_note 12, 1
	drum_note 2, 1
	drum_note 12, 2
	drum_note 12, 1
	drum_note 12, 2
	drum_note 2, 3
	drum_note 12, 1
	drum_note 12, 3
	drum_note 12, 2
	drum_note 2, 1
	drum_note 12, 1
	drum_note 12, 2
	drum_note 12, 1
	drum_note 12, 2
	drum_note 2, 3
	drum_note 12, 1
	drum_note 12, 3
	drum_note 12, 2
	drum_note 2, 4
	drum_note 12, 1
	drum_note 12, 2
	drum_note 2, 3
	drum_note 12, 1
	drum_note 12, 1
	drum_note 12, 2
	drum_note 12, 2
	drum_note 2, 1
	drum_note 2, 1
	drum_note 12, 2
	drum_note 12, 1
	drum_note 12, 2
	drum_note 2, 3
	drum_note 12, 1
	drum_note 12, 3
	drum_note 12, 2
	drum_note 2, 4
	drum_note 12, 1
	drum_note 12, 2
	drum_note 2, 3
	drum_note 12, 1
	drum_note 12, 3
	drum_note 12, 2
	drum_note 2, 4
	drum_note 12, 1
	drum_note 12, 2
	drum_note 2, 3
	drum_note 12, 1
	drum_note 12, 3
	drum_note 12, 2
	drum_note 2, 1
	drum_note 12, 2
	drum_note 2, 1
	sound_jump Music_CanalaveCityDPPt_Ch4_loop
